<svg width="40" height="40" viewBox="0 0 40 40" fill="none" xmlns="http://www.w3.org/2000/svg">
<g clip-path="url(#clip0_1320_2587)">
<path d="M31.6667 0.000166679C31.4458 -0.00295673 31.2266 0.0378453 31.0216 0.120202C30.8167 0.202558 30.6301 0.324826 30.4729 0.4799C30.3156 0.634974 30.1907 0.819762 30.1054 1.02352C30.0202 1.22729 29.9763 1.44596 29.9763 1.66683C29.9763 1.88771 30.0202 2.10638 30.1054 2.31014C30.1907 2.51391 30.3156 2.69869 30.4729 2.85377C30.6301 3.00884 30.8167 3.13111 31.0216 3.21347C31.2266 3.29582 31.4458 3.33662 31.6667 3.3335H34.2269L29.7803 7.77849C28.075 6.55945 25.996 5.8335 23.75 5.8335C18.9748 5.8335 14.9382 9.08636 13.7191 13.4849C8.7892 14.3023 5.00003 18.5962 5.00003 23.7502C5.00003 26.209 5.86522 28.4713 7.30146 30.2573L5.87242 31.6864L4.17646 29.9904C4.02288 29.8304 3.83894 29.7027 3.63539 29.6148C3.43184 29.5268 3.21279 29.4803 2.99105 29.4781C2.76932 29.4758 2.54937 29.5178 2.34407 29.6016C2.13878 29.6855 1.95227 29.8094 1.79548 29.9662C1.63868 30.123 1.51474 30.3095 1.43093 30.5148C1.34711 30.7201 1.3051 30.94 1.30736 31.1618C1.30961 31.3835 1.35609 31.6026 1.44406 31.8061C1.53203 32.0096 1.65973 32.1936 1.81969 32.3472L3.51565 34.0431L1.27932 36.2795C1.11937 36.433 0.991668 36.617 0.903695 36.8205C0.815722 37.0241 0.769248 37.2431 0.766993 37.4649C0.764738 37.6866 0.806748 37.9066 0.890564 38.1119C0.974379 38.3171 1.09831 38.5036 1.25511 38.6604C1.41191 38.8172 1.59841 38.9412 1.80371 39.025C2.009 39.1088 2.22896 39.1508 2.45069 39.1486C2.67242 39.1463 2.89148 39.0998 3.09502 39.0119C3.29857 38.9239 3.48252 38.7962 3.63609 38.6362L5.87242 36.3999L7.57001 38.0975C7.72359 38.2575 7.90754 38.3852 8.11108 38.4731C8.31463 38.5611 8.53369 38.6076 8.75542 38.6098C8.97715 38.6121 9.19711 38.5701 9.4024 38.4863C9.6077 38.4024 9.7942 38.2785 9.951 38.1217C10.1078 37.9649 10.2317 37.7784 10.3155 37.5731C10.3994 37.3678 10.4414 37.1479 10.4391 36.9261C10.4369 36.7044 10.3904 36.4853 10.3024 36.2818C10.2144 36.0783 10.0867 35.8943 9.92678 35.7407L8.22919 34.0431L9.78193 32.492C11.4095 33.5465 13.3419 34.1668 15.4167 34.1668C20.1919 34.1668 24.2285 30.914 25.4476 26.5155C30.3775 25.698 34.1667 21.4041 34.1667 16.2502C34.1667 13.9609 33.4122 11.8454 32.1501 10.1222L36.6667 5.60726V8.3335C36.6636 8.55435 36.7044 8.77363 36.7867 8.97857C36.8691 9.18352 36.9914 9.37005 37.1464 9.52734C37.3015 9.68462 37.4863 9.80951 37.69 9.89476C37.8938 9.98001 38.1125 10.0239 38.3334 10.0239C38.5542 10.0239 38.7729 9.98001 38.9767 9.89476C39.1804 9.80951 39.3652 9.68462 39.5203 9.52734C39.6754 9.37005 39.7976 9.18352 39.88 8.97857C39.9623 8.77363 40.0032 8.55435 40 8.3335V1.66683C40 1.22482 39.8244 0.800922 39.5118 0.488371C39.1993 0.17582 38.7754 0.000210874 38.3334 0.000166679H31.6667ZM23.75 9.16683C27.6818 9.16683 30.8334 12.3184 30.8334 16.2502C30.8334 19.4689 28.7208 22.1621 25.7976 23.034C25.4669 18.2372 21.8645 14.3189 17.2136 13.5011C18.2804 10.9474 20.795 9.16683 23.75 9.16683ZM16.6927 16.7857C19.8364 17.3509 22.2338 19.965 22.474 23.2147C19.3303 22.6494 16.9329 20.0353 16.6927 16.7857ZM13.3692 16.9663C13.6998 21.7631 17.3022 25.6815 21.9532 26.4992C20.8863 29.0529 18.3717 30.8335 15.4167 30.8335C11.4849 30.8335 8.33336 27.6819 8.33336 23.7502C8.33336 20.5314 10.4459 17.8383 13.3692 16.9663Z" fill="#80898A"/>
</g>
<defs>
<clipPath id="clip0_1320_2587">
<rect width="40" height="40" fill="white"/>
</clipPath>
</defs>
</svg>
