<svg width="36" height="38" viewBox="0 0 36 38" fill="none" xmlns="http://www.w3.org/2000/svg">
<g filter="url(#filter0_d_1367_2817)">
<path d="M11.1973 21.7142L8.47617 21.7142C6.43535 21.7142 4.66664 23.3469 4.66664 25.5237C4.66664 27.7006 6.43535 29.3333 8.47617 29.3333L11.1973 29.3333C13.2381 29.3333 15.0068 27.7006 15.0068 25.5237C15.0068 23.3469 13.2381 21.7142 11.1973 21.7142Z" fill="#80898A"/>
<path d="M19.3605 12.1904L8.47617 12.1904C6.43535 12.1904 4.66664 13.823 4.66664 15.9999C4.66664 18.1768 6.43535 19.8094 8.47617 19.8094L19.3605 19.8094C21.4013 19.8094 23.17 18.1768 23.17 15.9999C23.17 13.823 21.4013 12.1904 19.3605 12.1904Z" fill="#80898A"/>
<path d="M27.5238 2.66658L8.47617 2.66658C6.43535 2.66658 4.66664 4.29924 4.66664 6.47611C4.66664 8.65298 6.2993 10.2856 8.47617 10.2856L27.5238 10.2856C29.5646 10.2856 31.3333 8.65298 31.3333 6.47611C31.3333 4.29924 29.5646 2.66658 27.5238 2.66658Z" fill="#80898A"/>
</g>
<defs>
<filter id="filter0_d_1367_2817" x="-2" y="0" width="40" height="40" filterUnits="userSpaceOnUse" color-interpolation-filters="sRGB">
<feFlood flood-opacity="0" result="BackgroundImageFix"/>
<feColorMatrix in="SourceAlpha" type="matrix" values="0 0 0 0 0 0 0 0 0 0 0 0 0 0 0 0 0 0 127 0" result="hardAlpha"/>
<feOffset dy="4"/>
<feGaussianBlur stdDeviation="2"/>
<feComposite in2="hardAlpha" operator="out"/>
<feColorMatrix type="matrix" values="0 0 0 0 0 0 0 0 0 0 0 0 0 0 0 0 0 0 0.25 0"/>
<feBlend mode="normal" in2="BackgroundImageFix" result="effect1_dropShadow_1367_2817"/>
<feBlend mode="normal" in="SourceGraphic" in2="effect1_dropShadow_1367_2817" result="shape"/>
</filter>
</defs>
</svg>
