<?xml version="1.0" encoding="utf-8"?>
<svg viewBox="170.276 91.044 40 40" xmlns="http://www.w3.org/2000/svg">
  <path d="M 40 20 A 20 20 0 0 1 20 40 A 20 20 0 0 1 0 20 A 20 20 0 0 1 20 0 A 20 20 0 0 1 40 20 Z" fill="#0396A6" transform="matrix(1, 0, 0, 1, 170.276108, 91.044418)"/>
  <path fill-rule="evenodd" clip-rule="evenodd" d="M20.7381 8.52363C21.3935 7.86821 22.2825 7.5 23.2094 7.5H28.3375C28.9273 7.5 29.493 7.73432 29.9101 8.1514L31.8486 10.0899C32.2657 10.507 32.5 11.0727 32.5 11.6625V16.7906C32.5 17.7175 32.1318 18.6065 31.4764 19.2619L19.2619 31.4764C17.8971 32.8412 15.6842 32.8412 14.3194 31.4764L8.52363 25.6806C7.15879 24.3158 7.15879 22.1029 8.52363 20.7381L20.7381 8.52363ZM23.2094 9.4063C22.788 9.4063 22.384 9.57367 22.0861 9.87159L9.87159 22.0861C9.25121 22.7064 9.25121 23.7123 9.87159 24.3327L15.6673 30.1284C16.2877 30.7488 17.2936 30.7488 17.9139 30.1284L30.1284 17.9139C30.4263 17.616 30.5937 17.212 30.5937 16.7906V11.6625C30.5937 11.5782 30.5602 11.4974 30.5006 11.4378L28.5621 9.49936C28.5026 9.43978 28.4218 9.4063 28.3375 9.4063H23.2094Z" fill="#F8FCFD" transform="matrix(1, 0, 0, 1, 170.276108, 91.044418)"/>
  <path d="M26.4634 14.8075C26.4634 15.5094 25.8944 16.0784 25.1925 16.0784C24.4906 16.0784 23.9216 15.5094 23.9216 14.8075C23.9216 14.1056 24.4906 13.5366 25.1925 13.5366C25.8944 13.5366 26.4634 14.1056 26.4634 14.8075Z" fill="#F8FCFD" transform="matrix(1, 0, 0, 1, 170.276108, 91.044418)"/>
</svg>