<svg width="72" height="72" viewBox="0 0 72 72" fill="none" xmlns="http://www.w3.org/2000/svg">
<path d="M36 0C16.1633 0 0 16.1633 0 36C0 55.8367 16.1633 72 36 72C55.8367 72 72 55.8367 72 36C72 16.1633 55.8367 0 36 0ZM33.0612 23.1429C33.0612 21.6735 34.1633 20.2041 36 20.2041C37.8367 20.2041 38.9388 21.3061 38.9388 23.1429V37.8367C38.9388 39.3061 37.8367 40.7755 36 40.7755C34.1633 40.7755 33.0612 39.6735 33.0612 37.8367V23.1429ZM36 52.5306C34.1633 52.5306 32.3265 50.6939 32.3265 48.8571C32.3265 47.0204 34.1633 45.1837 36 45.1837C37.8367 45.1837 39.6735 47.0204 39.6735 48.8571C39.6735 50.6939 37.8367 52.5306 36 52.5306Z" fill="#007ECC"/>
</svg>
