<svg width="72" height="72" viewBox="0 0 72 72" fill="none" xmlns="http://www.w3.org/2000/svg">
<path d="M36 0C16.1633 0 0 16.1633 0 36C0 55.8367 16.1633 72 36 72C55.8367 72 72 55.8367 72 36C72 16.1633 55.8367 0 36 0ZM45.1837 41.5102C46.2857 42.6123 46.2857 44.449 45.1837 45.551C44.449 45.9184 44.0816 46.2857 43.3469 46.2857C42.6123 46.2857 41.8776 45.9184 41.5102 45.551L36 40.0408L30.4898 45.551C29.3878 46.6531 27.551 46.6531 26.449 45.551C25.3469 44.449 25.3469 42.6123 26.449 41.5102L31.9592 36L26.449 30.4898C25.3469 29.3878 25.3469 27.551 26.449 26.449C27.551 25.3469 29.3878 25.3469 30.4898 26.449L36 31.9592L41.5102 26.449C42.6123 25.3469 44.449 25.3469 45.551 26.449C46.6531 27.551 46.6531 29.3878 45.551 30.4898L40.0408 36L45.1837 41.5102Z" fill="#ED4A4A"/>
</svg>
