<svg width="50" height="50" viewBox="0 0 50 50" fill="none" xmlns="http://www.w3.org/2000/svg">
<path fill-rule="evenodd" clip-rule="evenodd" d="M26.23 5.8728C27.3224 4.78043 28.8039 4.16675 30.3488 4.16675H38.8957C39.8787 4.16675 40.8215 4.55727 41.5167 5.25242L44.7475 8.48323C45.4426 9.17837 45.8332 10.1212 45.8332 11.1043V19.6512C45.8332 21.196 45.2195 22.6776 44.1271 23.7699L23.7697 44.1274C21.4949 46.4021 17.8069 46.4021 15.5321 44.1274L5.87255 34.4678C3.59782 32.1931 3.59782 28.505 5.87255 26.2302L26.23 5.8728ZM30.3488 7.34392C29.6466 7.34392 28.9731 7.62287 28.4766 8.1194L8.11916 28.4768C7.08519 29.5108 7.08519 31.1872 8.11915 32.2212L17.7787 41.8808C18.8127 42.9147 20.4891 42.9147 21.5231 41.8808L41.8805 21.5233C42.3771 21.0268 42.656 20.3534 42.656 19.6512V11.1043C42.656 10.9638 42.6002 10.8291 42.5009 10.7298L39.2701 7.49902C39.1708 7.39971 39.0361 7.34392 38.8957 7.34392H30.3488Z" fill="#262C2D"/>
<path d="M35.7721 16.3459C35.7721 17.5157 34.8238 18.464 33.654 18.464C32.4842 18.464 31.5359 17.5157 31.5359 16.3459C31.5359 15.1761 32.4842 14.2278 33.654 14.2278C34.8238 14.2278 35.7721 15.1761 35.7721 16.3459Z" fill="#262C2D"/>
</svg>
