<svg width="50" height="50" viewBox="0 0 50 50" fill="none" xmlns="http://www.w3.org/2000/svg">
<path d="M45.3401 36.0625C44.3716 34 43.2093 31.375 41.8533 28.9375C40.4973 26.3125 39.1413 23.875 37.979 21.625C35.6544 17.5 31.9738 12.25 29.2618 8.5C28.2932 7.1875 26.7435 6.25 25.0001 6.25C23.2566 6.25 21.7069 7 20.7384 8.5C18.0263 12.25 14.5395 17.5 12.0212 21.625C9.50289 25.9375 6.59717 31.9375 4.66002 36.0625C3.88516 37.5625 4.07888 39.4375 4.85374 40.75C5.82231 42.25 7.37203 43 9.11546 43.1875C13.7646 43.375 20.1572 43.75 25.0001 43.75C29.843 43.75 36.4293 43.375 40.8847 43.1875C42.6281 43.1875 44.1779 42.25 45.1464 40.75C45.9213 39.4375 46.115 37.5625 45.3401 36.0625ZM23.4504 21.8125C23.4504 21.0625 24.0315 20.3125 25.0001 20.3125C25.9687 20.3125 26.5498 20.875 26.5498 21.8125V29.3125C26.5498 30.0625 25.9687 30.8125 25.0001 30.8125C24.0315 30.8125 23.4504 30.25 23.4504 29.3125V21.8125ZM25.0001 36.8125C24.0315 36.8125 23.0629 35.875 23.0629 34.9375C23.0629 34 24.0315 33.0625 25.0001 33.0625C25.9687 33.0625 26.9372 34 26.9372 34.9375C26.9372 35.875 25.9687 36.8125 25.0001 36.8125Z" fill="#262C2D"/>
</svg>
