<svg width="50" height="50" viewBox="0 0 50 50" fill="none" xmlns="http://www.w3.org/2000/svg">
<path fill-rule="evenodd" clip-rule="evenodd" d="M8.80566 8.80566C9.43554 8.17578 10.4568 8.17578 11.0866 8.80566L24.9999 22.7189L38.9132 8.80566C39.5431 8.17578 40.5643 8.17578 41.1942 8.80566C41.824 9.43554 41.824 10.4568 41.1942 11.0866L27.2809 24.9999L41.1942 38.9132C41.824 39.5431 41.824 40.5643 41.1942 41.1942C40.5643 41.824 39.5431 41.824 38.9132 41.1942L24.9999 27.2809L11.0866 41.1942C10.4568 41.824 9.43554 41.824 8.80566 41.1942C8.17578 40.5643 8.17578 39.5431 8.80566 38.9132L22.7189 24.9999L8.80566 11.0866C8.17578 10.4568 8.17578 9.43554 8.80566 8.80566Z" fill="#030D45"/>
</svg>
