<svg width="50" height="50" viewBox="0 0 50 50" fill="none" xmlns="http://www.w3.org/2000/svg">
<circle cx="25" cy="25" r="25" fill="#262C2D"/>
<path fill-rule="evenodd" clip-rule="evenodd" d="M11.1538 25.3871C11.7911 25.3871 12.3077 25.907 12.3077 26.5484V32.1925C12.3077 33.19 13.0533 34.0073 14.0212 34.0895C16.9506 34.3382 21.5794 34.6774 25 34.6774C28.4206 34.6774 33.0494 34.3382 35.9788 34.0895C36.9467 34.0073 37.6923 33.19 37.6923 32.1925V26.5484C37.6923 25.907 38.2089 25.3871 38.8462 25.3871C39.4834 25.3871 40 25.907 40 26.5484V32.1925C40 34.3771 38.3554 36.2185 36.1728 36.4038C33.241 36.6528 28.5269 37 25 37C21.4731 37 16.759 36.6528 13.8272 36.4038C11.6446 36.2185 10 34.3771 10 32.1925V26.5484C10 25.907 10.5166 25.3871 11.1538 25.3871Z" fill="#F8FCFD"/>
<path fill-rule="evenodd" clip-rule="evenodd" d="M24.1841 13.3401C24.6347 12.8866 25.3653 12.8866 25.8159 13.3401L30.4313 17.9853C30.8819 18.4388 30.8819 19.1741 30.4313 19.6276C29.9807 20.0811 29.2501 20.0811 28.7995 19.6276L26.1538 16.9649V26.5484C26.1538 27.1897 25.6373 27.7097 25 27.7097C24.3627 27.7097 23.8462 27.1897 23.8462 26.5484V16.9649L21.2005 19.6276C20.7499 20.0811 20.0193 20.0811 19.5687 19.6276C19.1181 19.1741 19.1181 18.4388 19.5687 17.9853L24.1841 13.3401Z" fill="#F8FCFD"/>
</svg>
