<svg width="50" height="50" viewBox="0 0 50 50" fill="none" xmlns="http://www.w3.org/2000/svg">
<path fill-rule="evenodd" clip-rule="evenodd" d="M32.0018 6.06588C34.534 3.5337 38.6395 3.53371 41.1717 6.06588L43.934 8.82826C46.4662 11.3604 46.4662 15.4659 43.934 17.9981L17.9978 43.9343C16.7818 45.1503 15.1326 45.8334 13.4129 45.8334H5.93488C4.95823 45.8334 4.1665 45.0417 4.1665 44.065V36.587C4.1665 34.8673 4.84964 33.2181 6.06564 32.0021L32.0018 6.06588ZM38.6708 8.56675C37.5198 7.41575 35.6537 7.41575 34.5027 8.56674L29.6563 13.4132L36.5867 20.3437L41.4332 15.4972C42.5842 14.3462 42.5842 12.4801 41.4332 11.3291L38.6708 8.56675ZM34.0859 22.8445L27.1554 15.914L8.5665 34.5029C8.01378 35.0557 7.70326 35.8053 7.70326 36.587V42.2967H13.4129C14.1946 42.2967 14.9443 41.9861 15.497 41.4334L34.0859 22.8445Z" fill="#262C2D"/>
</svg>
