<svg width="50" height="50" viewBox="0 0 50 50" fill="none" xmlns="http://www.w3.org/2000/svg">
<circle cx="25" cy="25" r="25" fill="#262C2D"/>
<path fill-rule="evenodd" clip-rule="evenodd" d="M23.9641 14.8104C21.1152 11.8414 16.3177 11.799 13.2053 14.8398C13.1954 14.8494 13.1854 14.8589 13.1753 14.8682C10.1557 17.634 10.1111 22.2628 13.2053 25.2859L13.2134 25.2939L24.8958 36.9115L36.795 25.2859C36.8049 25.2763 36.8149 25.2668 36.8251 25.2575C39.8446 22.4917 39.8893 17.8629 36.795 14.8398C33.6994 11.8153 28.8782 11.8153 25.7825 14.8398C25.538 15.0787 25.2085 15.2099 24.8672 15.2044C24.5258 15.1989 24.2008 15.0571 23.9641 14.8104ZM24.911 12.1969C20.9913 9.00645 15.205 9.31001 11.4308 12.9835C7.2802 16.8008 7.32826 23.1297 11.4119 27.1237C11.4133 27.1251 11.4146 27.1264 11.416 27.1278L23.9851 39.6272C24.4818 40.1211 25.2815 40.1247 25.7825 39.6352L38.57 27.1418C42.7215 23.3231 42.6719 16.9915 38.5843 12.9979C34.7875 9.28842 28.9951 9.0214 24.911 12.1969Z" fill="#F8FCFD"/>
</svg>
