<svg width="50" height="50" viewBox="0 0 50 50" fill="none" xmlns="http://www.w3.org/2000/svg">
<path fill-rule="evenodd" clip-rule="evenodd" d="M23.705 12.263C20.1439 8.55179 14.1469 8.49875 10.2565 12.2997C10.2442 12.3118 10.2317 12.3236 10.219 12.3353C6.44448 15.7925 6.38871 21.5786 10.2565 25.3574L10.2667 25.3673L24.8697 39.8894L39.7437 25.3574C39.756 25.3454 39.7685 25.3335 39.7812 25.3219C43.5557 21.8647 43.6114 16.0786 39.7437 12.2997C35.8741 8.51914 29.8476 8.51914 25.978 12.2997C25.6723 12.5984 25.2605 12.7624 24.8339 12.7555C24.4072 12.7486 24.0009 12.5713 23.705 12.263ZM24.8887 8.9961C19.989 5.00807 12.7562 5.38752 8.03838 9.97941C2.85013 14.751 2.9102 22.6622 8.0147 27.6546C8.01644 27.6563 8.01818 27.658 8.01992 27.6597L23.7313 43.284C24.3521 43.9014 25.3518 43.9059 25.978 43.294L41.9624 27.6772C47.1518 22.9039 47.0897 14.9894 41.9802 9.99741C37.2342 5.36053 29.9938 5.02675 24.8887 8.9961Z" fill="#262C2D"/>
</svg>
