<svg width="50" height="50" viewBox="0 0 50 50" fill="none" xmlns="http://www.w3.org/2000/svg">
<path d="M45.5924 31.8718C45.2661 35.4824 44.7416 38.4163 44.1034 41.0341C43.678 43.6519 41.1256 45.8334 38.3604 45.8334H34.9571C33.0427 45.8334 31.5538 44.3064 31.5538 42.343V33.3989C31.5538 31.2174 29.8521 29.4722 27.7251 29.4722H22.8328C20.7058 29.4722 19.0041 31.2174 19.0041 33.3989V42.343C19.0041 44.3064 17.5152 45.8334 15.6008 45.8334H11.5594C8.79421 45.8334 6.45445 43.8701 5.81633 41.0341C5.17821 38.1982 4.62494 35.4849 4.32738 31.8718C3.94974 27.2863 4.32738 22.9277 4.54009 20.0917C4.54009 18.3465 5.60362 16.6013 7.09256 15.5106L21.982 5.2575C22.8328 4.60305 23.8964 4.16675 24.9599 4.16675C26.0234 4.16675 27.2997 4.60305 28.1505 5.2575L43.0399 15.5106C44.5289 16.6013 45.5924 18.3465 45.5924 20.0917C45.8051 22.9277 46.0064 27.2902 45.5924 31.8718Z" fill="#262C2D"/>
</svg>
