<svg width="50" height="50" viewBox="0 0 50 50" fill="none" xmlns="http://www.w3.org/2000/svg">
<path d="M41.0172 10.1191C40.8008 7.35552 38.6363 5.01709 35.8224 4.8045C32.7921 4.59192 28.2467 4.16675 24.9999 4.16675C21.7532 4.16675 17.2077 4.59192 14.1774 5.01709C11.3636 5.22967 9.19905 7.35552 8.9826 10.1191C8.76615 13.5205 8.33325 20.1106 8.33325 25.0001C8.33325 29.677 8.76615 36.2671 8.9826 39.881C9.19905 42.6446 11.3636 44.9831 14.1774 45.1957C17.2077 45.4082 21.7532 45.8334 24.9999 45.8334C28.2467 45.8334 32.7921 45.4082 35.8224 45.1957C38.6363 44.9831 40.8008 42.6446 41.0172 39.881C41.2337 36.4797 41.6666 29.8895 41.6666 25.0001C41.6666 20.1106 41.2337 13.7331 41.0172 10.1191ZM18.5064 19.0477H24.9999C25.8657 19.0477 26.7315 19.6855 26.7315 20.7484C26.7315 21.8113 26.0822 22.4491 24.9999 22.4491H18.5064C17.6406 22.4491 16.7748 21.8113 16.7748 20.7484C16.7748 19.6855 17.6406 19.0477 18.5064 19.0477ZM31.4934 30.9525H18.5064C17.6406 30.9525 16.7748 30.3147 16.7748 29.2518C16.7748 28.1889 17.4242 27.5511 18.5064 27.5511H31.4934C32.3592 27.5511 33.225 28.1889 33.225 29.2518C33.225 30.3147 32.3592 30.9525 31.4934 30.9525Z" fill="#262C2D"/>
</svg>
