<svg width="50" height="50" viewBox="0 0 50 50" fill="none" xmlns="http://www.w3.org/2000/svg">
<circle cx="25" cy="25" r="25" fill="#262C2D"/>
<path fill-rule="evenodd" clip-rule="evenodd" d="M24.1455 10.8974C16.8275 10.8974 10.8976 16.8225 10.8976 24.1284C10.8976 31.4344 16.8275 37.3595 24.1455 37.3595C27.7964 37.3595 31.1 35.8863 33.4974 33.4999C35.9056 31.1027 37.3933 27.7902 37.3933 24.1284C37.3933 16.8225 31.4635 10.8974 24.1455 10.8974ZM8.3335 24.1284C8.3335 15.4036 15.4142 8.33325 24.1455 8.33325C32.8768 8.33325 39.9574 15.4036 39.9574 24.1284C39.9574 28.0374 38.5347 31.6161 36.1807 34.3733L41.2908 39.4775C41.7918 39.9778 41.7922 40.7896 41.2919 41.2906C40.7915 41.7915 39.9797 41.792 39.4788 41.2916L34.3639 36.1826C31.6086 38.5154 28.0406 39.9236 24.1455 39.9236C15.4142 39.9236 8.3335 32.8533 8.3335 24.1284Z" fill="#F8FCFD"/>
</svg>
