<svg width="50" height="50" viewBox="0 0 50 50" fill="none" xmlns="http://www.w3.org/2000/svg">
<path fill-rule="evenodd" clip-rule="evenodd" d="M23.9317 7.37188C14.7842 7.37188 7.37188 14.7783 7.37188 23.9107C7.37188 33.0432 14.7842 40.4496 23.9317 40.4496C28.4953 40.4496 32.6249 38.608 35.6216 35.6251C38.6319 32.6286 40.4915 28.4879 40.4915 23.9107C40.4915 14.7783 33.0792 7.37188 23.9317 7.37188ZM4.16675 23.9107C4.16675 13.0047 13.0176 4.16675 23.9317 4.16675C34.8458 4.16675 43.6967 13.0047 43.6967 23.9107C43.6967 28.7969 41.9182 33.2703 38.9758 36.7168L45.3634 43.097C45.9896 43.7225 45.9902 44.7372 45.3647 45.3634C44.7392 45.9896 43.7245 45.9902 43.0983 45.3647L36.7047 38.9784C33.2606 41.8944 28.8006 43.6547 23.9317 43.6547C13.0176 43.6547 4.16675 34.8168 4.16675 23.9107Z" fill="#262C2D"/>
</svg>
