<svg width="50" height="50" viewBox="0 0 50 50" fill="none" xmlns="http://www.w3.org/2000/svg">
<path d="M42.9983 25.2194L42.5426 25.0001L42.9983 24.7808C45.7322 23.2457 46.6435 19.9562 45.0487 17.3246L41.8591 12.0615C41.1757 10.7457 39.8087 9.8685 38.4418 9.42991C37.0748 8.99131 35.48 9.21061 34.1131 9.8685L33.6574 10.0878V9.6492C33.6574 6.57903 31.1514 4.16675 27.9618 4.16675H21.8105C18.621 4.16675 16.1149 6.57903 16.1149 9.6492V10.0878H15.8871C14.5201 9.21061 13.1532 8.99131 11.5584 9.42991C9.96363 9.8685 8.8245 10.7457 8.14103 12.0615L4.95148 17.3246C3.3567 19.9562 4.268 23.2457 7.0019 24.7808L7.45755 25.0001L7.0019 25.2194C4.268 26.7545 3.3567 30.0439 4.95148 32.6755L8.14103 37.9387C8.8245 39.2545 10.1915 40.1317 11.5584 40.5703C13.1532 41.0089 14.5201 40.7896 15.8871 39.9124H16.1149V40.351C16.1149 43.4211 18.621 45.8334 21.8105 45.8334H27.9618C31.1514 45.8334 33.6574 43.4211 33.6574 40.351V39.9124L34.1131 40.1317C35.48 40.7896 37.0748 41.0089 38.4418 40.5703C40.0365 40.1317 41.1757 39.2545 41.8591 37.9387L45.0487 32.6755C46.6435 30.0439 45.7322 26.7545 42.9983 25.2194ZM25.0001 33.3334C20.2158 33.3334 16.3427 29.6053 16.3427 25.0001C16.3427 20.3948 20.2158 16.6667 25.0001 16.6667C29.7844 16.6667 33.6574 20.3948 33.6574 25.0001C33.6574 29.6053 29.7844 33.3334 25.0001 33.3334Z" fill="black"/>
</svg>
