<svg width="50" height="50" viewBox="0 0 50 50" fill="none" xmlns="http://www.w3.org/2000/svg">
<path d="M24.9998 4.16675C13.5202 4.16675 4.1665 13.5205 4.1665 25.0001C4.1665 36.4797 13.5202 45.8334 24.9998 45.8334C36.4794 45.8334 45.8332 36.4797 45.8332 25.0001C45.8332 13.5205 36.4794 4.16675 24.9998 4.16675ZM32.4403 21.8113L23.9369 30.3147C23.5117 30.5273 23.2992 30.7399 22.874 30.7399C22.4488 30.7399 22.0236 30.5273 21.8111 30.3147L17.5594 26.063C16.9216 25.4253 16.9216 24.3623 17.5594 23.7246C18.1971 23.0868 19.26 23.0868 19.8978 23.7246L23.0866 26.9133L30.5271 19.4729C31.1648 18.8351 32.2277 18.8351 32.8655 19.4729C33.0781 20.3232 33.0781 21.1736 32.4403 21.8113Z" fill="#262C2D"/>
</svg>
