<svg width="50" height="50" viewBox="0 0 50 50" fill="none" xmlns="http://www.w3.org/2000/svg">
<circle cx="25" cy="25" r="25" fill="#262C2D"/>
<path fill-rule="evenodd" clip-rule="evenodd" d="M25.0001 10.8974C21.912 10.8974 19.4087 13.3847 19.4087 16.4529C19.4087 19.5212 21.912 22.0085 25.0001 22.0085C28.0881 22.0085 30.5915 19.5212 30.5915 16.4529C30.5915 13.3847 28.0881 10.8974 25.0001 10.8974ZM16.828 16.4529C16.828 11.9685 20.4868 8.33325 25.0001 8.33325C29.5134 8.33325 33.1721 11.9685 33.1721 16.4529C33.1721 20.9373 29.5134 24.5726 25.0001 24.5726C20.4868 24.5726 16.828 20.9373 16.828 16.4529Z" fill="#F8FCFD"/>
<path fill-rule="evenodd" clip-rule="evenodd" d="M20.777 30.5555C17.1708 30.5555 14.2474 33.4602 14.2474 37.0433C14.2474 37.2314 14.282 37.3642 14.3183 37.4415C14.3489 37.5068 14.3752 37.5254 14.3971 37.5372C15.3999 38.0794 18.2114 39.1025 25.0001 39.1025C31.7887 39.1025 34.6003 38.0794 35.6031 37.5372C35.625 37.5254 35.6513 37.5068 35.6819 37.4415C35.7182 37.3642 35.7528 37.2314 35.7528 37.0433C35.7528 33.4602 32.8293 30.5555 29.2231 30.5555H20.777ZM11.6667 37.0433C11.6667 32.044 15.7456 27.9914 20.777 27.9914H29.2231C34.2546 27.9914 38.3334 32.044 38.3334 37.0433C38.3334 37.961 37.999 39.161 36.8365 39.7895C35.2966 40.622 31.9932 41.6666 25.0001 41.6666C18.007 41.6666 14.7035 40.622 13.1636 39.7895C12.0011 39.161 11.6667 37.961 11.6667 37.0433Z" fill="#F8FCFD"/>
</svg>
