<svg width="50" height="50" viewBox="0 0 50 50" fill="none" xmlns="http://www.w3.org/2000/svg">
<circle cx="25" cy="25" r="25" fill="#262C2D"/>
<path d="M24.9999 25.1684C29.3049 25.1684 32.7948 21.6049 32.7948 17.2092C32.7948 12.8134 29.3049 9.25 24.9999 9.25C20.6949 9.25 17.205 12.8134 17.205 17.2092C17.205 21.6049 20.6949 25.1684 24.9999 25.1684Z" fill="#F8FCFD"/>
<path d="M29.0597 28.4849H20.9401C16.2307 28.4849 12.3333 32.4644 12.3333 37.2731C12.3333 38.4338 12.8204 39.4287 13.7948 39.9262C15.2563 40.7553 18.5042 41.7502 24.9999 41.7502C31.4956 41.7502 34.7435 40.7553 36.205 39.9262C37.017 39.4287 37.6666 38.4338 37.6666 37.2731C37.6666 32.2986 33.7691 28.4849 29.0597 28.4849Z" fill="#F8FCFD"/>
</svg>
