<svg width="50" height="50" viewBox="0 0 50 50" fill="none" xmlns="http://www.w3.org/2000/svg">
<path d="M32.3717 23.9373C37.0725 23.9373 40.9187 20.1107 40.9187 15.4339C40.9187 10.757 37.0725 6.93046 32.3717 6.93046C32.158 6.93046 31.9443 6.93046 31.7307 6.93046C33.0127 9.05631 33.8674 11.6073 33.8674 14.1583C33.8674 17.7723 32.3717 21.1737 30.0212 23.7247C30.6623 23.9373 31.517 23.9373 32.3717 23.9373Z" fill="#262C2D"/>
<path d="M36.0042 28.4012H33.8675C37.0726 31.1648 39.2094 35.4165 39.2094 40.0934C39.2094 41.1563 38.9957 42.0067 38.782 42.857C41.5598 42.4318 43.2692 41.7941 44.3376 41.1563C45.4059 40.5186 45.8333 39.4557 45.8333 38.1801C45.8333 32.8655 41.3461 28.4012 36.0042 28.4012Z" fill="#262C2D"/>
<path d="M19.5511 23.9372C22.1152 23.9372 24.2519 23.0868 26.175 21.3861C28.3117 19.6855 29.3801 16.9219 29.3801 14.1582C29.3801 12.0324 28.7391 9.90654 27.457 8.41845C25.7476 5.86743 22.9699 4.16675 19.5511 4.16675C14.2092 4.16675 9.72201 8.63104 9.72201 13.9457C9.72201 19.4729 14.2092 23.9372 19.5511 23.9372Z" fill="#262C2D"/>
<path d="M25.3203 29.0394C24.6793 29.0394 24.252 28.8268 23.6109 28.8268H15.4913C9.29471 28.8268 4.1665 33.9289 4.1665 40.0938C4.1665 41.5819 4.80753 42.6449 5.87591 43.4952C7.58531 44.5581 11.6451 45.8336 19.5511 45.8336C27.4571 45.8336 31.3033 44.5581 33.2263 43.4952C33.2263 43.4952 33.44 43.2826 33.6537 43.2826C34.5084 42.6449 35.1494 41.5819 35.1494 40.0938C34.9357 34.5666 30.8759 29.8897 25.3203 29.0394Z" fill="#262C2D"/>
</svg>
