<svg width="50" height="50" viewBox="0 0 50 50" fill="none" xmlns="http://www.w3.org/2000/svg">
<path fill-rule="evenodd" clip-rule="evenodd" d="M25.0002 7.37188C21.1401 7.37188 18.0109 10.481 18.0109 14.3163C18.0109 18.1516 21.1401 21.2608 25.0002 21.2608C28.8602 21.2608 31.9894 18.1516 31.9894 14.3163C31.9894 10.481 28.8602 7.37188 25.0002 7.37188ZM14.7851 14.3163C14.7851 8.71087 19.3585 4.16675 25.0002 4.16675C30.6418 4.16675 35.2152 8.71087 35.2152 14.3163C35.2152 19.9218 30.6418 24.4659 25.0002 24.4659C19.3585 24.4659 14.7851 19.9218 14.7851 14.3163Z" fill="#262C2D"/>
<path fill-rule="evenodd" clip-rule="evenodd" d="M19.7214 31.9445C15.2136 31.9445 11.5593 35.5754 11.5593 40.0543C11.5593 40.2895 11.6026 40.4554 11.6479 40.5521C11.6862 40.6337 11.719 40.6569 11.7464 40.6717C12.9999 41.3494 16.5144 42.6283 25.0002 42.6283C33.486 42.6283 37.0004 41.3494 38.2539 40.6717C38.2813 40.6569 38.3141 40.6337 38.3524 40.5521C38.3978 40.4554 38.441 40.2895 38.441 40.0543C38.441 35.5754 34.7867 31.9445 30.279 31.9445H19.7214ZM8.3335 40.0543C8.3335 33.8052 13.432 28.7394 19.7214 28.7394H30.279C36.5683 28.7394 41.6668 33.8052 41.6668 40.0543C41.6668 41.2014 41.2488 42.7014 39.7957 43.487C37.8709 44.5277 33.7415 45.8334 25.0002 45.8334C16.2588 45.8334 12.1295 44.5277 10.2046 43.487C8.75148 42.7014 8.3335 41.2014 8.3335 40.0543Z" fill="#262C2D"/>
</svg>
