<svg width="24" height="24" viewBox="0 0 24 24" fill="none" xmlns="http://www.w3.org/2000/svg">
<path d="M23.6289 3.46392C23.5052 1.85567 22.268 0.494845 20.5361 0.371134C18.0619 0.123711 14.5979 0 12 0C9.40206 0 5.93814 0.123711 3.46392 0.371134C2.59794 0.371134 1.85567 0.742268 1.36082 1.36082C0.865979 1.97938 0.494845 2.59794 0.371134 3.46392C0.123711 5.93814 0 9.40206 0 12C0 14.5979 0.247423 18.0619 0.371134 20.5361C0.494845 22.1443 1.73196 23.5052 3.46392 23.6289C5.93814 23.8763 9.40206 24 12 24C14.5979 24 18.0619 23.7526 20.5361 23.6289C22.1443 23.5052 23.5052 22.268 23.6289 20.5361C23.8763 18.0619 24 14.5979 24 12C24 9.40206 23.8763 5.93814 23.6289 3.46392ZM16.3299 10.1443L11.3814 15.0928C11.134 15.2165 11.0103 15.3402 10.7629 15.3402C10.5155 15.3402 10.268 15.2165 10.1443 15.0928L7.6701 12.6186C7.29897 12.2474 7.29897 11.6289 7.6701 11.2577C8.04124 10.8866 8.65979 10.8866 9.03093 11.2577L10.8866 13.1134L15.2165 8.7835C15.5876 8.41237 16.2062 8.41237 16.5773 8.7835C16.701 9.27835 16.701 9.7732 16.3299 10.1443Z" fill="#0396A6"/>
</svg>
