<svg width="24" height="24" viewBox="0 0 24 24" fill="none" xmlns="http://www.w3.org/2000/svg">
<path fill-rule="evenodd" clip-rule="evenodd" d="M12 1.84615C9.39698 1.84615 5.83939 2.08504 3.61794 2.25714C2.88739 2.31373 2.31373 2.88739 2.25714 3.61794C2.08504 5.83938 1.84615 9.39698 1.84615 12C1.84615 14.603 2.08504 18.1606 2.25714 20.3821C2.31373 21.1126 2.88739 21.6863 3.61794 21.7429C5.83938 21.915 9.39698 22.1538 12 22.1538C14.603 22.1538 18.1606 21.915 20.3821 21.7429C21.1126 21.6863 21.6863 21.1126 21.7429 20.3821C21.915 18.1606 22.1538 14.603 22.1538 12C22.1538 9.39698 21.915 5.83939 21.7429 3.61794C21.6863 2.88739 21.1126 2.31373 20.3821 2.25714C18.1606 2.08504 14.603 1.84615 12 1.84615ZM3.47535 0.416498C5.69783 0.244317 9.31856 0 12 0C14.6814 0 18.3022 0.244317 20.5247 0.416498C22.1623 0.543372 23.4566 1.83769 23.5835 3.47535C23.7557 5.69783 24 9.31856 24 12C24 14.6814 23.7557 18.3022 23.5835 20.5247C23.4566 22.1623 22.1623 23.4566 20.5247 23.5835C18.3022 23.7557 14.6814 24 12 24C9.31856 24 5.69782 23.7557 3.47534 23.5835C1.83769 23.4566 0.543372 22.1623 0.416498 20.5247C0.244317 18.3022 0 14.6814 0 12C0 9.31856 0.244317 5.69782 0.416498 3.47534C0.543372 1.83769 1.83769 0.543372 3.47535 0.416498Z" fill="#80898A"/>
</svg>
