<svg width="50" height="50" viewBox="0 0 50 50" fill="none" xmlns="http://www.w3.org/2000/svg">
<path d="M44.3529 8.39687L41.1803 5.22428C40.5458 4.58976 39.4882 4.16675 38.6422 4.16675H30.182C28.7014 4.16675 27.2209 4.80127 26.1634 5.8588L5.8588 26.1634C4.80127 27.2209 4.16675 28.7014 4.16675 30.182C4.16675 31.6625 4.80127 33.1431 5.8588 34.4121L15.5881 44.1414C16.6456 45.1989 18.1261 45.8334 19.8182 45.8334C21.2987 45.8334 22.7793 45.1989 23.8368 44.1414L44.1414 23.8368C45.1989 22.7793 45.8334 21.2987 45.8334 19.8182V11.3579C45.6219 10.0889 45.1989 9.03138 44.3529 8.39687ZM33.3546 18.3376C32.297 18.3376 31.2395 17.2801 31.2395 16.2226C31.2395 15.1651 32.297 14.1075 33.3546 14.1075C34.4121 14.1075 35.4696 15.1651 35.4696 16.2226C35.4696 17.2801 34.4121 18.3376 33.3546 18.3376Z" fill="#262C2D"/>
</svg>
