<svg width="50" height="50" viewBox="0 0 50 50" fill="none" xmlns="http://www.w3.org/2000/svg">
<path d="M43.6941 31.5902C43.2569 28.4014 42.6009 23.7246 41.945 20.3232C41.7263 18.8351 41.289 17.1344 40.6331 15.6463C38.8839 8.84362 32.3246 4.16675 25.1093 4.16675C17.6753 4.16675 11.1159 8.84362 9.36676 15.4338C8.92947 17.1344 8.49218 18.8351 8.05488 20.3232C7.39895 23.7246 6.74301 28.4014 6.30572 31.5902C5.86843 34.5664 8.05488 37.33 11.1159 37.9678C13.3024 38.3929 16.1448 38.6055 18.9872 39.0307V39.881C18.9872 43.0698 21.6109 45.8334 25.1093 45.8334C28.3889 45.8334 31.2313 43.2824 31.2313 39.881V39.0307C34.0737 38.8181 36.6975 38.3929 39.1026 37.9678C41.945 37.33 44.1314 34.5664 43.6941 31.5902ZM27.733 39.881C27.733 41.3691 26.4211 42.4321 25.1093 42.4321C23.7974 42.4321 22.2669 41.1565 22.2669 39.881V39.2433C23.1414 39.2433 24.2347 39.2433 25.1093 39.2433C25.9838 39.2433 26.8584 39.2433 27.733 39.2433V39.881Z" fill="#262C2D"/>
</svg>
