<svg width="50" height="45" viewBox="0 0 50 45" fill="none" xmlns="http://www.w3.org/2000/svg">
<path d="M50 15.1876C50 19.2996 48.2143 22.8977 45.4082 25.7247L26.2755 44.486C25.7653 44.743 25.5102 45 25 45C24.4898 45 23.9796 44.743 23.7245 44.486L4.59184 25.4677C1.78571 22.6407 0 18.7856 0 14.6736C0 10.8185 1.78571 7.22046 4.59184 4.39341C7.65306 1.56637 11.4796 -0.232653 15.5612 0.0243512C18.8776 0.0243512 21.9388 1.30937 24.4898 3.3654C30.6122 -1.51767 39.2857 -1.00366 44.898 4.65042C48.2143 7.22046 50 11.0755 50 15.1876Z" fill="#262C2D"/>
</svg>
