<svg width="50" height="40" viewBox="0 0 50 40" fill="none" xmlns="http://www.w3.org/2000/svg">
<path d="M50 11.4633V32.6829C50 36.0975 47.1833 39.0243 43.5985 39.2682C38.2212 39.756 30.7954 39.9999 25.1621 39.9999C19.5287 39.9999 12.1029 39.5121 6.72563 39.2682C3.14077 39.0243 0.324097 36.0975 0.324097 32.6829V11.4633L4.16502 13.4145L21.8333 22.6828C22.8575 23.1706 24.1378 23.4145 25.1621 23.4145C26.1863 23.4145 27.4666 23.1706 28.4908 22.6828L46.1591 13.4145L50 11.4633Z" fill="#262C2D"/>
<path d="M49.744 6.09757C49.744 6.58538 49.488 7.31708 48.9758 7.56099L45.9031 9.0244L26.4424 19.2683C25.4182 19.7561 24.3939 19.7561 23.3697 19.2683L0.836293 7.56099C0.32417 7.31708 -0.187953 6.82928 0.0681088 6.34147C0.580232 3.41464 3.14085 0.975611 6.46964 0.731708C11.8469 0.243903 19.2727 0 24.9061 0C30.5394 0 38.2213 0.487805 43.3425 0.731708C46.6713 0.975611 49.2319 3.17074 49.744 6.09757Z" fill="#262C2D"/>
</svg>
