<?xml version="1.0" encoding="utf-8"?>
<svg viewBox="84.442 23.818 40 40" xmlns="http://www.w3.org/2000/svg">
  <path d="M 40 20 A 20 20 0 0 1 20 40 A 20 20 0 0 1 0 20 A 20 20 0 0 1 20 0 A 20 20 0 0 1 40 20 Z" fill="#0396A6" transform="matrix(1, 0, 0, 1, 84.441772, 23.817528)"/>
  <path fill-rule="evenodd" clip-rule="evenodd" d="M19.2229 12.3578C17.0863 10.1311 13.4881 10.0992 11.1539 12.3798C11.1465 12.3871 11.1389 12.3942 11.1313 12.4012C8.86664 14.4755 8.83318 17.9471 11.1539 20.2144L11.1599 20.2204L19.9217 28.9336L28.8461 20.2144C28.8535 20.2072 28.8611 20.2001 28.8687 20.1931C31.1334 18.1188 31.1668 14.6472 28.8461 12.3798C26.5244 10.1115 22.9085 10.1115 20.5868 12.3798C20.4034 12.559 20.1563 12.6574 19.9003 12.6533C19.6443 12.6492 19.4005 12.5428 19.2229 12.3578ZM19.9331 10.3977C16.9933 8.00484 12.6537 8.23251 9.82298 10.9876C6.71003 13.8506 6.74607 18.5973 9.80877 21.5928C9.80982 21.5938 9.81086 21.5948 9.8119 21.5958L19.2387 30.9704C19.6112 31.3409 20.211 31.3435 20.5868 30.9764L30.1774 21.6063C33.291 18.7423 33.2538 13.9936 30.1881 10.9984C27.3405 8.21632 22.9962 8.01605 19.9331 10.3977Z" fill="#F8FCFD" transform="matrix(1, 0, 0, 1, 84.441772, 23.817528)"/>
</svg>