<svg width="402" height="76" fill="none" xmlns="http://www.w3.org/2000/svg"><g filter="url(#a)"><path fill-rule="evenodd" clip-rule="evenodd" d="M200 45c13.711 0 25.81-6.898 33.017-17.413C240.511 16.653 250.745 5 264 5h107c13.255 0 24 10.745 24 24v16c0 13.255-10.745 24-24 24H29C15.745 69 5 58.255 5 45V29C5 15.745 15.745 5 29 5h107c13.255 0 23.489 11.653 30.983 22.587C174.19 38.102 186.289 45 200 45Z" fill="#F8FCFD"/></g><defs><filter id="a" x="0" y="0" width="402" height="76" filterUnits="userSpaceOnUse" color-interpolation-filters="sRGB"><feFlood flood-opacity="0" result="BackgroundImageFix"/><feColorMatrix in="SourceAlpha" values="0 0 0 0 0 0 0 0 0 0 0 0 0 0 0 0 0 0 127 0" result="hardAlpha"/><feOffset dx="1" dy="1"/><feGaussianBlur stdDeviation="3"/><feComposite in2="hardAlpha" operator="out"/><feColorMatrix values="0 0 0 0 0.148021 0 0 0 0 0.172352 0 0 0 0 0.175 0 0 0 0.2 0"/><feBlend in2="BackgroundImageFix" result="effect1_dropShadow_1143_2122"/><feBlend in="SourceGraphic" in2="effect1_dropShadow_1143_2122" result="shape"/></filter></defs></svg>