<svg width="32" height="32" viewBox="0 0 32 32" fill="none" xmlns="http://www.w3.org/2000/svg">
<path fill-rule="evenodd" clip-rule="evenodd" d="M15.3163 4.71797C9.46193 4.71797 4.71803 9.4581 4.71803 15.3028C4.71803 21.1476 9.46193 25.8877 15.3163 25.8877C18.237 25.8877 20.88 24.7091 22.7979 22.8C24.7244 20.8823 25.9146 18.2322 25.9146 15.3028C25.9146 9.4581 21.1707 4.71797 15.3163 4.71797ZM2.66675 15.3028C2.66675 8.32297 8.33127 2.66669 15.3163 2.66669C22.3014 2.66669 27.9659 8.32297 27.9659 15.3028C27.9659 18.43 26.8277 21.293 24.9445 23.4987L29.0326 27.5821C29.4334 27.9824 29.4337 28.6318 29.0334 29.0325C28.6331 29.4333 27.9837 29.4337 27.583 29.0334L23.491 24.9462C21.2868 26.8124 18.4324 27.939 15.3163 27.939C8.33127 27.939 2.66675 22.2827 2.66675 15.3028Z" fill="#F8FCFD"/>
</svg>
