<?xml version="1.0" encoding="utf-8"?>
<svg viewBox="55.648 115.021 390 64" xmlns="http://www.w3.org/2000/svg">
  <defs>
    <filter id="filter0_d_1143_2122" x="0" y="0" width="402" height="76" filterUnits="userSpaceOnUse" color-interpolation-filters="sRGB">
      <feFlood flood-opacity="0" result="BackgroundImageFix"/>
      <feColorMatrix in="SourceAlpha" type="matrix" values="0 0 0 0 0 0 0 0 0 0 0 0 0 0 0 0 0 0 127 0" result="hardAlpha"/>
      <feOffset dx="1" dy="1"/>
      <feGaussianBlur stdDeviation="3"/>
      <feComposite in2="hardAlpha" operator="out"/>
      <feColorMatrix type="matrix" values="0 0 0 0 0.148021 0 0 0 0 0.172352 0 0 0 0 0.175 0 0 0 0.2 0"/>
      <feBlend mode="normal" in2="BackgroundImageFix" result="effect1_dropShadow_1143_2122"/>
      <feBlend mode="normal" in="SourceGraphic" in2="effect1_dropShadow_1143_2122" result="shape"/>
    </filter>
  </defs>
  <g filter="url(#filter0_d_1143_2122)" transform="matrix(1, 0, 0, 1, 50.647663, 110.020721)">
    <path fill-rule="evenodd" clip-rule="evenodd" d="M 200 45 C 213.711 45 225.81 38.102 233.017 27.587 C 240.511 16.653 250.745 5 264 5 C 267.967 37.401 377.282 56.301 371 5 C 384.255 5 395 15.745 395 29 L 395 45 C 395 58.255 384.255 69 371 69 L 29 69 C 15.745 69 5 58.255 5 45 L 5 29 C 5 15.745 15.745 5 29 5 L 136 5 C 149.255 5 159.489 16.653 166.983 27.587 C 174.19 38.102 186.289 45 200 45 Z" fill="#F8FCFD"/>
  </g>
</svg>