<?xml version="1.0" encoding="utf-8"?>
<svg viewBox="214.293 119.455 36 36" xmlns="http://www.w3.org/2000/svg">
  <path d="M 36 18 A 18 18 0 0 1 18 36 A 18 18 0 0 1 0 18 A 18 18 0 0 1 18 0 A 18 18 0 0 1 36 18 Z" fill="#0396A6" transform="matrix(1, 0, 0, 1, 214.292923, 119.454979)"/>
  <path d="M 18 10 H 18 A 1 1 0 0 1 19 11 V 25 A 1 1 0 0 1 18 26 H 18 A 1 1 0 0 1 17 25 V 11 A 1 1 0 0 1 18 10 Z" fill="#F8FCFD" transform="matrix(1, 0, 0, 1, 214.292923, 119.454979)"/>
  <path d="M 27 17 H 27 A 1 1 0 0 1 28 18 V 32 A 1 1 0 0 1 27 33 H 27 A 1 1 0 0 1 26 32 V 18 A 1 1 0 0 1 27 17 Z" transform="matrix(0, 1, -1, 0, 257.292908, 110.454979)" fill="#F8FCFD"/>
</svg>