<svg width="48" height="48" viewBox="0 0 48 48" fill="none" xmlns="http://www.w3.org/2000/svg">
<circle cx="24" cy="24" r="24" fill="#B4ECE7"/>
<path d="M32.2893 16.0305L30.7665 14.5076C30.4619 14.203 29.9543 14 29.5482 14H25.4873C24.7767 14 24.066 14.3046 23.5584 14.8122L13.8122 24.5584C13.3046 25.066 13 25.7766 13 26.4873C13 27.198 13.3046 27.9086 13.8122 28.5178L18.4822 33.1878C18.9898 33.6954 19.7005 34 20.5127 34C21.2234 34 21.934 33.6954 22.4416 33.1878L32.1878 23.4416C32.6954 22.934 33 22.2233 33 21.5127V17.4518C32.8985 16.8426 32.6954 16.335 32.2893 16.0305ZM27.0102 20.802C26.5025 20.802 25.9949 20.2944 25.9949 19.7868C25.9949 19.2792 26.5025 18.7716 27.0102 18.7716C27.5178 18.7716 28.0254 19.2792 28.0254 19.7868C28.0254 20.2944 27.5178 20.802 27.0102 20.802Z" fill="#0396A6"/>
</svg>
