<svg width="48" height="48" viewBox="0 0 48 48" fill="none" xmlns="http://www.w3.org/2000/svg">
<circle cx="24" cy="24" r="24" fill="#B4ECE7"/>
<path d="M32.6391 24.1053L32.4204 24L32.6391 23.8947C33.9514 23.1579 34.3888 21.5789 33.6234 20.3158L32.0924 17.7895C31.7643 17.1579 31.1082 16.7368 30.452 16.5263C29.7959 16.3158 29.0304 16.4211 28.3743 16.7368L28.1556 16.8421V16.6316C28.1556 15.1579 26.9526 14 25.4217 14H22.469C20.9381 14 19.7351 15.1579 19.7351 16.6316V16.8421H19.6258C18.9696 16.4211 18.3135 16.3158 17.548 16.5263C16.7825 16.7368 16.2357 17.1579 15.9077 17.7895L14.3767 20.3158C13.6112 21.5789 14.0486 23.1579 15.3609 23.8947L15.5796 24L15.3609 24.1053C14.0486 24.8421 13.6112 26.4211 14.3767 27.6842L15.9077 30.2105C16.2357 30.8421 16.8919 31.2632 17.548 31.4737C18.3135 31.6842 18.9696 31.5789 19.6258 31.1579H19.7351V31.3684C19.7351 32.8421 20.9381 34 22.469 34H25.4217C26.9526 34 28.1556 32.8421 28.1556 31.3684V31.1579L28.3743 31.2632C29.0304 31.5789 29.7959 31.6842 30.452 31.4737C31.2175 31.2632 31.7643 30.8421 32.0924 30.2105L33.6234 27.6842C34.3888 26.4211 33.9514 24.8421 32.6391 24.1053ZM24 28C21.7035 28 19.8445 26.2105 19.8445 24C19.8445 21.7895 21.7035 20 24 20C26.2965 20 28.1556 21.7895 28.1556 24C28.1556 26.2105 26.2965 28 24 28Z" fill="#0396A6"/>
</svg>
