<svg width="48" height="48" viewBox="0 0 48 48" fill="none" xmlns="http://www.w3.org/2000/svg">
<circle cx="24" cy="24" r="24" fill="#B4ECE7"/>
<path d="M34 20.5853V29.0731C34 30.439 32.8733 31.6097 31.4394 31.7073C29.2884 31.9024 26.3181 32 24.0648 32C21.8115 32 18.8412 31.8048 16.6902 31.7073C15.2563 31.6097 14.1296 30.439 14.1296 29.0731V20.5853L15.666 21.3658L22.7333 25.0731C23.143 25.2682 23.6551 25.3658 24.0648 25.3658C24.4745 25.3658 24.9866 25.2682 25.3963 25.0731L32.4636 21.3658L34 20.5853Z" fill="#0396A6"/>
<path d="M33.8976 18.439C33.8976 18.6341 33.7952 18.9268 33.5903 19.0244L32.3612 19.6098L24.577 23.7073C24.1673 23.9024 23.7576 23.9024 23.3479 23.7073L14.3345 19.0244C14.1297 18.9268 13.9248 18.7317 14.0272 18.5366C14.2321 17.3659 15.2563 16.3902 16.5879 16.2927C18.7388 16.0976 21.7091 16 23.9624 16C26.2157 16 29.2885 16.1951 31.337 16.2927C32.6685 16.3902 33.6927 17.2683 33.8976 18.439Z" fill="#0396A6"/>
</svg>
