<svg width="48" height="48" viewBox="0 0 48 48" fill="none" xmlns="http://www.w3.org/2000/svg">
<circle cx="24" cy="24" r="24" fill="#B4ECE7"/>
<path d="M32.9732 27.1633C32.7633 25.6327 32.4484 23.3878 32.1336 21.7551C32.0286 21.0408 31.8187 20.2245 31.5039 19.5102C30.6643 16.2449 27.5158 14 24.0524 14C20.4841 14 17.3356 16.2449 16.496 19.4082C16.2861 20.2245 16.0762 21.0408 15.8663 21.7551C15.5515 23.3878 15.2366 25.6327 15.0267 27.1633C14.8168 28.5918 15.8663 29.9184 17.3356 30.2245C18.3851 30.4286 19.7495 30.5306 21.1138 30.7347V31.1429C21.1138 32.6735 22.3732 34 24.0524 34C25.6267 34 26.991 32.7755 26.991 31.1429V30.7347C28.3554 30.6327 29.6148 30.4286 30.7692 30.2245C32.1336 29.9184 33.1831 28.5918 32.9732 27.1633ZM25.3118 31.1429C25.3118 31.8571 24.6821 32.3673 24.0524 32.3673C23.4227 32.3673 22.6881 31.7551 22.6881 31.1429V30.8367C23.1079 30.8367 23.6326 30.8367 24.0524 30.8367C24.4722 30.8367 24.892 30.8367 25.3118 30.8367V31.1429Z" fill="#0396A6"/>
</svg>
