<svg width="28" height="28" viewBox="0 0 28 28" fill="none" xmlns="http://www.w3.org/2000/svg">
<path fill-rule="evenodd" clip-rule="evenodd" d="M4.93121 4.93105C5.28394 4.57832 5.85583 4.57832 6.20856 4.93105L14 12.7225L21.7914 4.93105C22.1441 4.57832 22.716 4.57832 23.0688 4.93105C23.4215 5.28378 23.4215 5.85567 23.0688 6.20841L15.2773 13.9998L23.0688 21.7913C23.4215 22.144 23.4215 22.7159 23.0688 23.0686C22.716 23.4213 22.1441 23.4213 21.7914 23.0686L14 15.2772L6.20856 23.0686C5.85583 23.4213 5.28394 23.4213 4.93121 23.0686C4.57847 22.7159 4.57847 22.144 4.93121 21.7913L12.7226 13.9998L4.93121 6.20841C4.57847 5.85567 4.57847 5.28378 4.93121 4.93105Z" fill="#030D45"/>
</svg>
