<svg width="36" height="36" viewBox="0 0 36 36" fill="none" xmlns="http://www.w3.org/2000/svg">
<circle cx="18" cy="18" r="18" fill="#0396A6"/>
<path d="M18.0001 16.7621C21.1721 16.7621 23.7436 14.2037 23.7436 11.0478C23.7436 7.89187 21.1721 5.3335 18.0001 5.3335C14.828 5.3335 12.2565 7.89187 12.2565 11.0478C12.2565 14.2037 14.828 16.7621 18.0001 16.7621Z" fill="#F8FCFD"/>
<path d="M20.9915 19.1431H15.0086C11.5385 19.1431 8.66672 22.0003 8.66672 25.4527C8.66672 26.286 9.02569 27.0003 9.74364 27.3574C10.8206 27.9527 13.2137 28.6669 18.0001 28.6669C22.7864 28.6669 25.1795 27.9527 26.2565 27.3574C26.8548 27.0003 27.3334 26.286 27.3334 25.4527C27.3334 21.8812 24.4616 19.1431 20.9915 19.1431Z" fill="#F8FCFD"/>
</svg>
