<svg width="23" height="21" viewBox="0 0 23 21" fill="none" xmlns="http://www.w3.org/2000/svg">
<path d="M22.5 6.83441C22.5 8.68483 21.6964 10.304 20.4337 11.5761L11.824 20.0187C11.5944 20.1343 11.4796 20.25 11.25 20.25C11.0204 20.25 10.7908 20.1343 10.676 20.0187L2.06633 11.4605C0.803571 10.1883 0 8.45353 0 6.6031C0 4.86833 0.803571 3.24921 2.06633 1.97704C3.44388 0.704868 5.16582 -0.104694 7.00255 0.010958C8.4949 0.010958 9.87245 0.589216 11.0204 1.51443C13.7755 -0.682952 17.6786 -0.451649 20.2041 2.09269C21.6964 3.2492 22.5 4.98398 22.5 6.83441Z" fill="#0396A6"/>
</svg>
