<svg width="29" height="40" viewBox="0 0 29 40" fill="none" xmlns="http://www.w3.org/2000/svg">
<path d="M14.1667 0C6.36237 0 0 6.36237 0 14.1667C0 21.4063 5.4778 27.3958 12.5 28.2259V31.6667H8.33333C8.11248 31.6635 7.89321 31.7043 7.68826 31.7867C7.48331 31.8691 7.29678 31.9913 7.1395 32.1464C6.98221 32.3015 6.85732 32.4863 6.77207 32.69C6.68683 32.8938 6.64293 33.1125 6.64293 33.3333C6.64293 33.5542 6.68683 33.7729 6.77207 33.9766C6.85732 34.1804 6.98221 34.3652 7.1395 34.5203C7.29678 34.6753 7.48331 34.7976 7.68826 34.88C7.89321 34.9623 8.11248 35.0031 8.33333 35H12.5V37.8923C12.4969 38.1131 12.5377 38.3324 12.62 38.5373C12.7024 38.7423 12.8247 38.9288 12.9797 39.0861C13.1348 39.2434 13.3196 39.3683 13.5234 39.4535C13.7271 39.5388 13.9458 39.5827 14.1667 39.5827C14.3875 39.5827 14.6062 39.5388 14.81 39.4535C15.0137 39.3683 15.1985 39.2434 15.3536 39.0861C15.5087 38.9288 15.6309 38.7423 15.7133 38.5373C15.7957 38.3324 15.8365 38.1131 15.8333 37.8923V35H20C20.2209 35.0031 20.4401 34.9623 20.6451 34.88C20.85 34.7976 21.0366 34.6753 21.1938 34.5203C21.3511 34.3652 21.476 34.1804 21.5613 33.9766C21.6465 33.7729 21.6904 33.5542 21.6904 33.3333C21.6904 33.1125 21.6465 32.8938 21.5613 32.69C21.476 32.4863 21.3511 32.3015 21.1938 32.1464C21.0366 31.9913 20.85 31.8691 20.6451 31.7867C20.4401 31.7043 20.2209 31.6635 20 31.6667H15.8333V28.2259C22.8555 27.3958 28.3333 21.4063 28.3333 14.1667C28.3333 6.36237 21.971 0 14.1667 0ZM14.1667 3.33333C20.1695 3.33333 25 8.16384 25 14.1667C25 20.1695 20.1695 25 14.1667 25C8.16384 25 3.33333 20.1695 3.33333 14.1667C3.33333 8.16384 8.16384 3.33333 14.1667 3.33333Z" fill="#0396A6"/>
</svg>
