<svg width="40" height="40" viewBox="0 0 40 40" fill="none" xmlns="http://www.w3.org/2000/svg">
<path d="M24.1667 3.33317C23.9458 3.33005 23.7265 3.37085 23.5216 3.45321C23.3167 3.53557 23.1301 3.65783 22.9728 3.81291C22.8155 3.96798 22.6907 4.15277 22.6054 4.35653C22.5202 4.56029 22.4763 4.77897 22.4763 4.99984C22.4763 5.22072 22.5202 5.43939 22.6054 5.64315C22.6907 5.84691 22.8155 6.0317 22.9728 6.18677C23.1301 6.34185 23.3167 6.46412 23.5216 6.54647C23.7265 6.62883 23.9458 6.66963 24.1667 6.66651H31.6732L24.9251 13.4129C22.5242 11.5432 19.5178 10.4165 16.25 10.4165C8.44571 10.4165 2.08334 16.7789 2.08334 24.5832C2.08334 32.3875 8.44571 38.7498 16.25 38.7498C24.0543 38.7498 30.4167 32.3875 30.4167 24.5832C30.4167 21.245 29.2461 18.1757 27.3031 15.7502L34.1667 8.88656V16.6665C34.1635 16.8874 34.2043 17.1066 34.2867 17.3116C34.3691 17.5165 34.4913 17.7031 34.6464 17.8603C34.8015 18.0176 34.9863 18.1425 35.19 18.2278C35.3938 18.313 35.6125 18.3569 35.8333 18.3569C36.0542 18.3569 36.2729 18.313 36.4766 18.2278C36.6804 18.1425 36.8652 18.0176 37.0203 17.8603C37.1753 17.7031 37.2976 17.5165 37.38 17.3116C37.4623 17.1066 37.5031 16.8874 37.5 16.6665V4.99984C37.5 4.55783 37.3243 4.13393 37.0118 3.82138C36.6992 3.50883 36.2753 3.33322 35.8333 3.33317H24.1667ZM16.25 13.7498C22.2528 13.7498 27.0833 18.5803 27.0833 24.5832C27.0833 30.586 22.2528 35.4165 16.25 35.4165C10.2472 35.4165 5.41667 30.586 5.41667 24.5832C5.41667 18.5803 10.2472 13.7498 16.25 13.7498Z" fill="#80898A"/>
</svg>
