<svg width="40" height="40" viewBox="0 0 40 40" fill="none" xmlns="http://www.w3.org/2000/svg">
<g clip-path="url(#clip0_1320_2587)">
<path d="M31.6667 0.000166679C31.4458 -0.00295673 31.2265 0.0378453 31.0216 0.120202C30.8166 0.202558 30.6301 0.324826 30.4728 0.4799C30.3155 0.634974 30.1907 0.819762 30.1054 1.02352C30.0202 1.22729 29.9763 1.44596 29.9763 1.66683C29.9763 1.88771 30.0202 2.10638 30.1054 2.31014C30.1907 2.51391 30.3155 2.69869 30.4728 2.85377C30.6301 3.00884 30.8166 3.13111 31.0216 3.21347C31.2265 3.29582 31.4458 3.33662 31.6667 3.3335H34.2269L29.7803 7.77849C28.075 6.55945 25.996 5.8335 23.75 5.8335C18.9748 5.8335 14.9382 9.08636 13.7191 13.4849C8.78917 14.3023 5 18.5962 5 23.7502C5 26.209 5.8652 28.4713 7.30143 30.2573L5.8724 31.6864L4.17643 29.9904C4.02286 29.8304 3.83891 29.7027 3.63536 29.6148C3.43181 29.5268 3.21276 29.4803 2.99103 29.4781C2.76929 29.4758 2.54934 29.5178 2.34405 29.6016C2.13875 29.6855 1.95225 29.8094 1.79545 29.9662C1.63865 30.123 1.51472 30.3095 1.4309 30.5148C1.34709 30.7201 1.30508 30.94 1.30733 31.1618C1.30959 31.3835 1.35606 31.6026 1.44403 31.8061C1.53201 32.0096 1.65971 32.1936 1.81966 32.3472L3.51562 34.0431L1.2793 36.2795C1.11934 36.433 0.991641 36.617 0.903668 36.8205C0.815696 37.0241 0.769221 37.2431 0.766966 37.4649C0.764711 37.6866 0.806722 37.9066 0.890537 38.1119C0.974352 38.3171 1.09829 38.5036 1.25508 38.6604C1.41188 38.8172 1.59839 38.9412 1.80368 39.025C2.00898 39.1088 2.22893 39.1508 2.45066 39.1486C2.6724 39.1463 2.89145 39.0998 3.095 39.0119C3.29854 38.9239 3.48249 38.7962 3.63607 38.6362L5.8724 36.3999L7.56999 38.0975C7.72356 38.2575 7.90751 38.3852 8.11106 38.4731C8.31461 38.5611 8.53366 38.6076 8.75539 38.6098C8.97713 38.6121 9.19708 38.5701 9.40238 38.4863C9.60767 38.4024 9.79418 38.2785 9.95097 38.1217C10.1078 37.9649 10.2317 37.7784 10.3155 37.5731C10.3993 37.3678 10.4413 37.1479 10.4391 36.9261C10.4368 36.7044 10.3904 36.4853 10.3024 36.2818C10.2144 36.0783 10.0867 35.8943 9.92676 35.7407L8.22917 34.0431L9.7819 32.492C11.4095 33.5465 13.3419 34.1668 15.4167 34.1668C20.1919 34.1668 24.2285 30.914 25.4476 26.5155C30.3775 25.698 34.1667 21.4041 34.1667 16.2502C34.1667 13.9609 33.4122 11.8454 32.1501 10.1222L36.6667 5.60726V8.3335C36.6635 8.55435 36.7043 8.77363 36.7867 8.97857C36.8691 9.18352 36.9913 9.37005 37.1464 9.52734C37.3015 9.68462 37.4863 9.80951 37.69 9.89476C37.8938 9.98001 38.1125 10.0239 38.3333 10.0239C38.5542 10.0239 38.7729 9.98001 38.9766 9.89476C39.1804 9.80951 39.3652 9.68462 39.5203 9.52734C39.6753 9.37005 39.7976 9.18352 39.88 8.97857C39.9623 8.77363 40.0031 8.55435 40 8.3335V1.66683C40 1.22482 39.8243 0.800922 39.5118 0.488371C39.1992 0.17582 38.7753 0.000210874 38.3333 0.000166679H31.6667ZM23.75 9.16683C27.6818 9.16683 30.8333 12.3184 30.8333 16.2502C30.8333 19.4689 28.7208 22.1621 25.7975 23.034C25.4669 18.2372 21.8645 14.3189 17.2135 13.5011C18.2804 10.9474 20.795 9.16683 23.75 9.16683ZM16.6927 16.7857C19.8364 17.3509 22.2338 19.965 22.474 23.2147C19.3303 22.6494 16.9329 20.0353 16.6927 16.7857ZM13.3691 16.9663C13.6997 21.7631 17.3022 25.6815 21.9531 26.4992C20.8863 29.0529 18.3717 30.8335 15.4167 30.8335C11.4849 30.8335 8.33333 27.6819 8.33333 23.7502C8.33333 20.5314 10.4459 17.8383 13.3691 16.9663Z" fill="#80898A"/>
</g>
<defs>
<clipPath id="clip0_1320_2587">
<rect width="40" height="40" fill="white"/>
</clipPath>
</defs>
</svg>
