<svg width="40" height="40" viewBox="0 0 40 40" fill="none" xmlns="http://www.w3.org/2000/svg">
<path d="M31.6667 -7.74612e-05C31.4458 -0.00320087 31.2265 0.0376012 31.0216 0.119957C30.8166 0.202314 30.6301 0.324582 30.4728 0.479656C30.3155 0.63473 30.1906 0.819517 30.1054 1.02328C30.0202 1.22704 29.9763 1.44571 29.9763 1.66659C29.9763 1.88746 30.0202 2.10614 30.1054 2.3099C30.1906 2.51366 30.3155 2.69845 30.4728 2.85352C30.6301 3.0086 30.8166 3.13086 31.0216 3.21322C31.2265 3.29558 31.4458 3.33638 31.6667 3.33326H34.2269L29.7803 7.77824C28.075 6.55921 25.996 5.83326 23.75 5.83326C18.9748 5.83326 14.9382 9.08612 13.7191 13.4846C8.78917 14.3021 5 18.596 5 23.7499C5 26.2087 5.86519 28.4711 7.30143 30.2571L5.87239 31.6861L4.17643 29.9902C4.02285 29.8302 3.8389 29.7025 3.63536 29.6145C3.43181 29.5266 3.21276 29.4801 2.99102 29.4778C2.76929 29.4756 2.54934 29.5176 2.34404 29.6014C2.13875 29.6852 1.95224 29.8091 1.79545 29.9659C1.63865 30.1227 1.51471 30.3092 1.4309 30.5145C1.34708 30.7198 1.30507 30.9398 1.30733 31.1615C1.30958 31.3833 1.35606 31.6023 1.44403 31.8059C1.532 32.0094 1.6597 32.1934 1.81966 32.3469L3.51562 34.0429L1.27929 36.2792C1.11934 36.4328 0.991637 36.6167 0.903665 36.8203C0.815692 37.0238 0.769217 37.2429 0.766962 37.4646C0.764708 37.6864 0.806718 37.9063 0.890533 38.1116C0.974348 38.3169 1.09828 38.5034 1.25508 38.6602C1.41188 38.817 1.59838 38.9409 1.80368 39.0247C2.00897 39.1086 2.22893 39.1506 2.45066 39.1483C2.67239 39.1461 2.89145 39.0996 3.09499 39.0116C3.29854 38.9236 3.48249 38.7959 3.63606 38.636L5.87239 36.3997L7.56998 38.0973C7.72356 38.2572 7.90751 38.3849 8.11105 38.4729C8.3146 38.5609 8.53366 38.6073 8.75539 38.6096C8.97712 38.6118 9.19708 38.5698 9.40237 38.486C9.60767 38.4022 9.79417 38.2783 9.95097 38.1215C10.1078 37.9647 10.2317 37.7782 10.3155 37.5729C10.3993 37.3676 10.4413 37.1476 10.4391 36.9259C10.4368 36.7042 10.3904 36.4851 10.3024 36.2816C10.2144 36.078 10.0867 35.8941 9.92675 35.7405L8.22916 34.0429L9.7819 32.4918C11.4095 33.5463 13.3419 34.1666 15.4167 34.1666C20.1919 34.1666 24.2284 30.9137 25.4476 26.5152C30.3775 25.6978 34.1667 21.4039 34.1667 16.2499C34.1667 13.9607 33.4122 11.8452 32.1501 10.122L36.6667 5.60702V8.33326C36.6635 8.55411 36.7043 8.77338 36.7867 8.97833C36.8691 9.18328 36.9913 9.36981 37.1464 9.52709C37.3015 9.68438 37.4863 9.80927 37.69 9.89452C37.8938 9.97976 38.1125 10.0237 38.3333 10.0237C38.5542 10.0237 38.7729 9.97976 38.9766 9.89452C39.1804 9.80927 39.3652 9.68438 39.5203 9.52709C39.6753 9.36981 39.7976 9.18328 39.88 8.97833C39.9623 8.77338 40.0031 8.55411 40 8.33326V1.66659C40 1.22458 39.8243 0.800678 39.5118 0.488127C39.1992 0.175576 38.7753 -3.32664e-05 38.3333 -7.74612e-05H31.6667ZM23.75 9.16659C27.6818 9.16659 30.8333 12.3182 30.8333 16.2499C30.8333 19.4687 28.7207 22.1618 25.7975 23.0338C25.4669 18.237 21.8645 14.3186 17.2135 13.5009C18.2804 10.9472 20.795 9.16659 23.75 9.16659ZM16.6927 16.7854C19.8364 17.3507 22.2338 19.9648 22.474 23.2144C19.3303 22.6492 16.9329 20.035 16.6927 16.7854ZM13.3691 16.9661C13.6997 21.7628 17.3022 25.6812 21.9531 26.4989C20.8863 29.0527 18.3717 30.8333 15.4167 30.8333C11.4849 30.8333 8.33333 27.6817 8.33333 23.7499C8.33333 20.5312 10.4459 17.838 13.3691 16.9661Z" fill="#0396A6"/>
</svg>
