<svg width="36" height="36" viewBox="0 0 36 36" fill="none" xmlns="http://www.w3.org/2000/svg">
<path d="M22.1666 0.333419C21.9458 0.330295 21.7265 0.371097 21.5216 0.453454C21.3166 0.53581 21.1301 0.658078 20.9728 0.813152C20.8155 0.968226 20.6906 1.15301 20.6054 1.35678C20.5201 1.56054 20.4762 1.77921 20.4762 2.00009C20.4762 2.22096 20.5201 2.43963 20.6054 2.64339C20.6906 2.84716 20.8155 3.03194 20.9728 3.18702C21.1301 3.34209 21.3166 3.46436 21.5216 3.54672C21.7265 3.62907 21.9458 3.66987 22.1666 3.66675H29.6732L22.9251 10.4132C20.5241 8.5434 17.5178 7.41675 14.25 7.41675C6.44568 7.41675 0.083313 13.7791 0.083313 21.5834C0.083313 29.3877 6.44568 35.7501 14.25 35.7501C22.0543 35.7501 28.4166 29.3877 28.4166 21.5834C28.4166 18.2452 27.2461 15.1759 25.303 12.7504L32.1666 5.8868V13.6668C32.1635 13.8876 32.2043 14.1069 32.2867 14.3118C32.369 14.5168 32.4913 14.7033 32.6464 14.8606C32.8015 15.0179 32.9862 15.1428 33.19 15.228C33.3938 15.3133 33.6124 15.3572 33.8333 15.3572C34.0542 15.3572 34.2729 15.3133 34.4766 15.228C34.6804 15.1428 34.8652 15.0179 35.0202 14.8606C35.1753 14.7033 35.2976 14.5168 35.3799 14.3118C35.4623 14.1069 35.5031 13.8876 35.5 13.6668V2.00009C35.4999 1.55807 35.3243 1.13417 35.0118 0.821623C34.6992 0.509072 34.2753 0.333463 33.8333 0.333419H22.1666ZM14.25 10.7501C20.2528 10.7501 25.0833 15.5806 25.0833 21.5834C25.0833 27.5862 20.2528 32.4167 14.25 32.4167C8.24715 32.4167 3.41665 27.5862 3.41665 21.5834C3.41665 15.5806 8.24715 10.7501 14.25 10.7501Z" fill="#0396A6"/>
</svg>
