<svg width="29" height="40" viewBox="0 0 29 40" fill="none" xmlns="http://www.w3.org/2000/svg">
<path d="M14.5832 0.416016C6.77887 0.416016 0.416504 6.77839 0.416504 14.5827C0.416504 21.8223 5.89431 27.8118 12.9165 28.6419V32.0827H8.74984C8.52898 32.0796 8.30971 32.1204 8.10477 32.2027C7.89982 32.2851 7.71328 32.4073 7.556 32.5624C7.39872 32.7175 7.27382 32.9023 7.18858 33.106C7.10333 33.3098 7.05943 33.5285 7.05943 33.7493C7.05943 33.9702 7.10333 34.1889 7.18858 34.3927C7.27382 34.5964 7.39872 34.7812 7.556 34.9363C7.71328 35.0914 7.89982 35.2136 8.10477 35.296C8.30971 35.3783 8.52898 35.4191 8.74984 35.416H12.9165V38.3083C12.9134 38.5291 12.9542 38.7484 13.0365 38.9533C13.1189 39.1583 13.2412 39.3448 13.3962 39.5021C13.5513 39.6594 13.7361 39.7843 13.9399 39.8695C14.1436 39.9548 14.3623 39.9987 14.5832 39.9987C14.804 39.9987 15.0227 39.9548 15.2265 39.8695C15.4302 39.7843 15.615 39.6594 15.7701 39.5021C15.9252 39.3448 16.0474 39.1583 16.1298 38.9533C16.2122 38.7484 16.253 38.5291 16.2498 38.3083V35.416H20.4165C20.6374 35.4191 20.8566 35.3783 21.0616 35.296C21.2665 35.2136 21.4531 35.0914 21.6103 34.9363C21.7676 34.7812 21.8925 34.5964 21.9778 34.3927C22.063 34.1889 22.1069 33.9702 22.1069 33.7493C22.1069 33.5285 22.063 33.3098 21.9778 33.106C21.8925 32.9023 21.7676 32.7175 21.6103 32.5624C21.4531 32.4073 21.2665 32.2851 21.0616 32.2027C20.8566 32.1204 20.6374 32.0796 20.4165 32.0827H16.2498V28.6419C23.272 27.8118 28.7498 21.8223 28.7498 14.5827C28.7498 6.77839 22.3875 0.416016 14.5832 0.416016ZM14.5832 3.74935C20.586 3.74935 25.4165 8.57985 25.4165 14.5827C25.4165 20.5855 20.586 25.416 14.5832 25.416C8.58034 25.416 3.74984 20.5855 3.74984 14.5827C3.74984 8.57985 8.58034 3.74935 14.5832 3.74935Z" fill="#80898A"/>
</svg>
