<svg width="40" height="50" viewBox="0 0 40 50" fill="none" xmlns="http://www.w3.org/2000/svg">
<path d="M19.6154 24.4897C26.282 24.4897 31.6864 19.0075 31.6864 12.2448C31.6864 5.4822 26.282 0 19.6154 0C12.9488 0 7.54438 5.4822 7.54438 12.2448C7.54438 19.0075 12.9488 24.4897 19.6154 24.4897Z" fill="#262C2D"/>
<path d="M25.9024 29.5919H13.3284C6.0355 29.5919 0 35.7144 0 43.1123C0 44.898 0.754438 46.4286 2.26331 47.1939C4.52663 48.4694 9.55621 50 19.6154 50C29.6746 50 34.7041 48.4694 36.9675 47.1939C38.2249 46.4286 39.2308 44.898 39.2308 43.1123C39.2308 35.4593 33.1953 29.5919 25.9024 29.5919Z" fill="#262C2D"/>
</svg>
