<svg width="50" height="50" viewBox="0 0 50 50" fill="none" xmlns="http://www.w3.org/2000/svg">
<circle cx="25" cy="25" r="25" fill="#262C2D"/>
<path fill-rule="evenodd" clip-rule="evenodd" d="M25.9841 9.69809C26.8579 8.8242 28.0432 8.33325 29.2791 8.33325H36.1166C36.903 8.33325 37.6573 8.64567 38.2134 9.20179L40.7981 11.7864C41.3542 12.3426 41.6666 13.0968 41.6666 13.8833V20.7208C41.6666 21.9566 41.1756 23.1419 40.3017 24.0158L24.0158 40.3018C22.196 42.1215 19.2455 42.1215 17.4258 40.3017L9.69809 32.5741C7.8783 30.7543 7.87831 27.8038 9.69809 25.9841L25.9841 9.69809ZM29.2791 10.875C28.7173 10.875 28.1786 11.0981 27.7813 11.4954L11.4954 27.7813C10.6682 28.6085 10.6682 29.9496 11.4954 30.7768L19.223 38.5045C20.0502 39.3316 21.3913 39.3316 22.2185 38.5045L38.5045 22.2185C38.9017 21.8213 39.1248 21.2825 39.1248 20.7208V13.8833C39.1248 13.7709 39.0802 13.6632 39.0008 13.5837L36.4161 10.9991C36.3367 10.9196 36.2289 10.875 36.1166 10.875H29.2791Z" fill="#F8FCFD"/>
<path d="M33.6177 18.0766C33.6177 19.0124 32.8591 19.7711 31.9233 19.7711C30.9874 19.7711 30.2288 19.0124 30.2288 18.0766C30.2288 17.1407 30.9874 16.3821 31.9233 16.3821C32.8591 16.3821 33.6177 17.1407 33.6177 18.0766Z" fill="#F8FCFD"/>
</svg>
