<svg width="50" height="50" viewBox="0 0 50 50" fill="none" xmlns="http://www.w3.org/2000/svg">
<path fill-rule="evenodd" clip-rule="evenodd" d="M26.493 7.90706C25.5906 7.28571 24.4095 7.28571 23.5072 7.90706L8.63208 18.1502C7.93815 18.628 7.51564 19.398 7.4844 20.2249C7.37642 23.0831 7.26196 28.0884 7.57629 31.641C7.81342 34.3211 8.44457 37.8638 8.95724 40.47C9.19532 41.6803 10.2488 42.5591 11.5009 42.5591H18.4258C18.7208 42.5591 18.96 42.3148 18.96 42.0134V33.2819C18.96 31.1722 20.6341 29.4619 22.6993 29.4619H27.9357C30.0009 29.4619 31.675 31.1722 31.675 33.2819V42.0134C31.675 42.3148 31.9142 42.5591 32.2092 42.5591H38.4993C39.7514 42.5591 40.8048 41.6803 41.0429 40.47C41.5556 37.8638 42.1867 34.3211 42.4239 31.641C42.7382 28.0884 42.6238 23.0831 42.5158 20.2249C42.4845 19.398 42.062 18.628 41.3681 18.1502L26.493 7.90706ZM21.7157 5.19198C23.7009 3.825 26.2993 3.825 28.2844 5.19198L43.1595 15.4351C44.6787 16.4812 45.6468 18.201 45.7185 20.0986C45.8264 22.9536 45.951 28.1498 45.616 31.9358C45.3621 34.8055 44.7002 38.497 44.1852 41.1151C43.6378 43.898 41.2342 45.8334 38.4993 45.8334H32.2092C30.144 45.8334 28.4699 44.1231 28.4699 42.0134V33.2819C28.4699 32.9806 28.2307 32.7362 27.9357 32.7362H22.6993C22.4043 32.7362 22.1651 32.9806 22.1651 33.2819V42.0134C22.1651 44.1231 20.4909 45.8334 18.4258 45.8334H11.5009C8.76593 45.8334 6.36236 43.898 5.81493 41.1151C5.29992 38.497 4.63809 34.8055 4.38418 31.9358C4.0492 28.1498 4.17379 22.9536 4.28165 20.0986C4.35335 18.201 5.32149 16.4812 6.84062 15.4351L21.7157 5.19198Z" fill="#262C2D"/>
</svg>
