<svg width="30" height="30" viewBox="0 0 30 30" fill="none" xmlns="http://www.w3.org/2000/svg">
<path fill-rule="evenodd" clip-rule="evenodd" d="M15.7381 3.52363C16.3935 2.86821 17.2825 2.5 18.2094 2.5H23.3375C23.9273 2.5 24.493 2.73432 24.9101 3.1514L26.8486 5.08989C27.2657 5.50698 27.5 6.07266 27.5 6.66251V11.7906C27.5 12.7175 27.1318 13.6065 26.4764 14.2619L14.2619 26.4764C12.8971 27.8412 10.6842 27.8412 9.31938 26.4764L3.52363 20.6806C2.15879 19.3158 2.15879 17.1029 3.52363 15.7381L15.7381 3.52363ZM18.2094 4.4063C17.788 4.4063 17.384 4.57367 17.0861 4.87159L4.87159 17.0861C4.25121 17.7064 4.25121 18.7123 4.87159 19.3327L10.6673 25.1284C11.2877 25.7488 12.2936 25.7488 12.9139 25.1284L25.1284 12.9139C25.4263 12.616 25.5937 12.212 25.5937 11.7906V6.66251C25.5937 6.57825 25.5602 6.49743 25.5006 6.43785L23.5621 4.49936C23.5026 4.43978 23.4218 4.4063 23.3375 4.4063H18.2094Z" fill="#0396A6"/>
<path d="M21.4634 9.8075C21.4634 10.5094 20.8944 11.0784 20.1925 11.0784C19.4906 11.0784 18.9216 10.5094 18.9216 9.8075C18.9216 9.10562 19.4906 8.53663 20.1925 8.53663C20.8944 8.53663 21.4634 9.10562 21.4634 9.8075Z" fill="#0396A6"/>
</svg>
