<svg width="32" height="32" viewBox="0 0 32 32" fill="none" xmlns="http://www.w3.org/2000/svg">
<path fill-rule="evenodd" clip-rule="evenodd" d="M16.7874 3.75856C17.4865 3.05944 18.4347 2.66669 19.4234 2.66669H24.8934C25.5226 2.66669 26.126 2.91662 26.5709 3.36151L28.6386 5.42924C29.0835 5.87413 29.3334 6.47753 29.3334 7.1067V12.5767C29.3334 13.5654 28.9407 14.5136 28.2415 15.2127L15.2128 28.2415C13.757 29.6973 11.3966 29.6973 9.94076 28.2415L3.75862 22.0594C2.30279 20.6035 2.30279 18.2432 3.75862 16.7873L16.7874 3.75856ZM19.4234 4.70008C18.974 4.70008 18.543 4.87861 18.2252 5.19638L5.19644 18.2251C4.5347 18.8869 4.5347 19.9598 5.19644 20.6215L11.3786 26.8037C12.0403 27.4654 13.1132 27.4654 13.775 26.8037L26.8037 13.7749C27.1215 13.4571 27.3 13.0261 27.3 12.5767V7.1067C27.3 7.01682 27.2643 6.93062 27.2008 6.86706L25.133 4.79934C25.0695 4.73578 24.9833 4.70008 24.8934 4.70008H19.4234Z" fill="#F8FCFD"/>
<path d="M22.8943 10.4614C22.8943 11.21 22.2874 11.8169 21.5388 11.8169C20.7901 11.8169 20.1832 11.21 20.1832 10.4614C20.1832 9.71268 20.7901 9.10576 21.5388 9.10576C22.2874 9.10576 22.8943 9.71268 22.8943 10.4614Z" fill="#F8FCFD"/>
</svg>
