<svg width="30" height="31" viewBox="0 0 30 31" fill="none" xmlns="http://www.w3.org/2000/svg">
<path d="M12.3601 13.0552C11.5051 13.0552 10.8301 13.8171 10.8301 14.7467C10.8301 15.6763 11.5201 16.4383 12.3601 16.4383C13.2151 16.4383 13.8901 15.6763 13.8901 14.7467C13.9051 13.8171 13.2151 13.0552 12.3601 13.0552ZM17.8351 13.0552C16.9801 13.0552 16.3051 13.8171 16.3051 14.7467C16.3051 15.6763 16.9951 16.4383 17.8351 16.4383C18.6901 16.4383 19.3651 15.6763 19.3651 14.7467C19.3651 13.8171 18.6901 13.0552 17.8351 13.0552Z" fill="#0396A6"/>
<path d="M25.1252 0.269531H5.0252C3.3302 0.269531 1.9502 1.67153 1.9502 3.40879V24.0121C1.9502 25.7494 3.3302 27.1514 5.0252 27.1514H22.0352L21.2402 24.3321L23.1602 26.1456L24.9752 27.8524L28.2002 30.7478V3.40879C28.2002 1.67153 26.8202 0.269531 25.1252 0.269531ZM19.3352 20.1718C19.3352 20.1718 18.7952 19.5166 18.3452 18.9375C20.3102 18.3736 21.0602 17.124 21.0602 17.124C20.4452 17.5355 19.8602 17.825 19.3352 18.0231C18.5852 18.3431 17.8652 18.5565 17.1602 18.6784C15.7202 18.9527 14.4002 18.8765 13.2752 18.6632C12.4202 18.4955 11.6852 18.2517 11.0702 18.0079C10.7252 17.8707 10.3502 17.7031 9.9752 17.4897C9.9302 17.4593 9.8852 17.444 9.8402 17.4136C9.8102 17.3983 9.7952 17.3831 9.7802 17.3678C9.5102 17.2154 9.3602 17.1088 9.3602 17.1088C9.3602 17.1088 10.0802 18.3279 11.9852 18.907C11.5352 19.4861 10.9802 20.1718 10.9802 20.1718C7.66519 20.0652 6.4052 17.8555 6.4052 17.8555C6.4052 12.9485 8.5652 8.97107 8.5652 8.97107C10.7252 7.32525 12.7802 7.37097 12.7802 7.37097L12.9302 7.55384C10.2302 8.34627 8.9852 9.55016 8.9852 9.55016C8.9852 9.55016 9.3152 9.36729 9.8702 9.10823C11.4752 8.39199 12.7502 8.19388 13.2752 8.14816C13.3652 8.13292 13.4402 8.11768 13.5302 8.11768C14.4452 7.99577 15.4802 7.96529 16.5602 8.08721C17.9852 8.25484 19.5152 8.68153 21.0752 9.55016C21.0752 9.55016 19.8902 8.40723 17.3402 7.61479L17.5502 7.37097C17.5502 7.37097 19.6052 7.32525 21.7652 8.97107C21.7652 8.97107 23.9252 12.9485 23.9252 17.8555C23.9252 17.8555 22.6502 20.0652 19.3352 20.1718Z" fill="#0396A6"/>
</svg>
