<svg width="30" height="31" viewBox="0 0 30 31" fill="none" xmlns="http://www.w3.org/2000/svg">
<g clip-path="url(#clip0_1156_1946)">
<path d="M30 15.6522C30 7.23587 23.2843 0.413086 15 0.413086C6.71572 0.413086 0 7.23587 0 15.6522C0 23.2584 5.48525 29.563 12.6562 30.7062V20.0573H8.84766V15.6522H12.6562V12.2948C12.6562 8.47554 14.8957 6.36587 18.322 6.36587C19.9626 6.36587 21.6797 6.66351 21.6797 6.66351V10.4138H19.7883C17.925 10.4138 17.3438 11.5885 17.3438 12.7949V15.6522H21.5039L20.8389 20.0573H17.3438V30.7062C24.5147 29.563 30 23.2584 30 15.6522Z" fill="#0396A6"/>
</g>
<defs>
<clipPath id="clip0_1156_1946">
<rect width="30" height="30.4783" fill="white" transform="translate(0 0.413086)"/>
</clipPath>
</defs>
</svg>
