<svg width="32" height="32" viewBox="0 0 32 32" fill="none" xmlns="http://www.w3.org/2000/svg">
<path fill-rule="evenodd" clip-rule="evenodd" d="M15.1712 7.84829C12.8921 5.47314 9.05407 5.4392 6.56419 7.87183C6.5563 7.87954 6.54829 7.88711 6.54016 7.89456C4.12449 10.1072 4.08881 13.8103 6.56419 16.2287L6.57069 16.2351L15.9166 25.5292L25.436 16.2287C25.4439 16.221 25.4519 16.2135 25.46 16.206C27.8757 13.9934 27.9114 10.2903 25.436 7.87183C22.9594 5.45225 19.1025 5.45225 16.6259 7.87183C16.4303 8.06295 16.1668 8.16794 15.8937 8.16352C15.6206 8.15911 15.3606 8.04565 15.1712 7.84829ZM15.9288 5.7575C12.793 3.20516 8.16398 3.44801 5.14459 6.38682C1.82411 9.44065 1.86256 14.5038 5.12944 17.699C5.13055 17.7001 5.13166 17.7011 5.13278 17.7022L15.1881 27.7018C15.5854 28.0969 16.2252 28.0997 16.6259 27.7082L26.8559 17.7134C30.1772 14.6585 30.1375 9.59322 26.8674 6.39834C23.8299 3.43074 19.196 3.21712 15.9288 5.7575Z" fill="#F8FCFD"/>
</svg>
