<svg width="30" height="31" viewBox="0 0 30 31" fill="none" xmlns="http://www.w3.org/2000/svg">
<g clip-path="url(#clip0_1156_1931)">
<path d="M15 3.18906C19.0078 3.18906 19.4824 3.20692 21.0586 3.27835C22.5234 3.34383 23.3145 3.59385 23.8418 3.8022C24.5391 4.07602 25.043 4.40938 25.5645 4.93918C26.0918 5.47493 26.4141 5.98091 26.6836 6.6893C26.8887 7.22505 27.1348 8.03463 27.1992 9.51687C27.2695 11.1241 27.2871 11.6063 27.2871 15.672C27.2871 19.7438 27.2695 20.2259 27.1992 21.8272C27.1348 23.3154 26.8887 24.1191 26.6836 24.6548C26.4141 25.3632 26.0859 25.8751 25.5645 26.4049C25.0371 26.9407 24.5391 27.2681 23.8418 27.5419C23.3145 27.7503 22.5176 28.0003 21.0586 28.0657C19.4766 28.1372 19.002 28.155 15 28.155C10.9922 28.155 10.5176 28.1372 8.94141 28.0657C7.47656 28.0003 6.68555 27.7503 6.1582 27.5419C5.46094 27.2681 4.95703 26.9347 4.43555 26.4049C3.9082 25.8692 3.58594 25.3632 3.31641 24.6548C3.11133 24.1191 2.86523 23.3095 2.80078 21.8272C2.73047 20.22 2.71289 19.7378 2.71289 15.672C2.71289 11.6003 2.73047 11.1182 2.80078 9.51687C2.86523 8.02867 3.11133 7.22505 3.31641 6.6893C3.58594 5.98091 3.91406 5.46898 4.43555 4.93918C4.96289 4.40343 5.46094 4.07602 6.1582 3.8022C6.68555 3.59385 7.48242 3.34383 8.94141 3.27835C10.5176 3.20692 10.9922 3.18906 15 3.18906ZM15 0.444824C10.9277 0.444824 10.418 0.462683 8.81836 0.534116C7.22461 0.605549 6.12891 0.867472 5.17969 1.2425C4.18945 1.63538 3.35156 2.15327 2.51953 3.00452C1.68164 3.84982 1.17188 4.70107 0.785156 5.70113C0.416016 6.67144 0.158203 7.77866 0.0878906 9.39781C0.0175781 11.0289 0 11.5468 0 15.684C0 19.8211 0.0175781 20.339 0.0878906 21.9641C0.158203 23.5833 0.416016 24.6965 0.785156 25.6608C1.17188 26.6668 1.68164 27.5181 2.51953 28.3634C3.35156 29.2087 4.18945 29.7325 5.17383 30.1195C6.12891 30.4945 7.21875 30.7564 8.8125 30.8278C10.4121 30.8993 10.9219 30.9171 14.9941 30.9171C19.0664 30.9171 19.5762 30.8993 21.1758 30.8278C22.7695 30.7564 23.8652 30.4945 24.8145 30.1195C25.7988 29.7325 26.6367 29.2087 27.4688 28.3634C28.3008 27.5181 28.8164 26.6668 29.1973 25.6668C29.5664 24.6965 29.8242 23.5893 29.8945 21.9701C29.9648 20.345 29.9824 19.8271 29.9824 15.6899C29.9824 11.5527 29.9648 11.0348 29.8945 9.40972C29.8242 7.79056 29.5664 6.67739 29.1973 5.71304C28.8281 4.70107 28.3184 3.84982 27.4805 3.00452C26.6484 2.15923 25.8105 1.63538 24.8262 1.24845C23.8711 0.873425 22.7813 0.611502 21.1875 0.540069C19.582 0.462683 19.0723 0.444824 15 0.444824Z" fill="#0396A6"/>
<path d="M15 7.85596C10.7461 7.85596 7.29492 11.3621 7.29492 15.6839C7.29492 20.0056 10.7461 23.5118 15 23.5118C19.2539 23.5118 22.7051 20.0056 22.7051 15.6839C22.7051 11.3621 19.2539 7.85596 15 7.85596ZM15 20.7616C12.2402 20.7616 10.002 18.4876 10.002 15.6839C10.002 12.8801 12.2402 10.6061 15 10.6061C17.7598 10.6061 19.998 12.8801 19.998 15.6839C19.998 18.4876 17.7598 20.7616 15 20.7616Z" fill="#0396A6"/>
<path d="M24.8086 7.54626C24.8086 8.55823 24 9.37376 23.0098 9.37376C22.0137 9.37376 21.2109 8.55228 21.2109 7.54626C21.2109 6.53428 22.0195 5.71875 23.0098 5.71875C24 5.71875 24.8086 6.54024 24.8086 7.54626Z" fill="#0396A6"/>
</g>
<defs>
<clipPath id="clip0_1156_1931">
<rect width="30" height="30.4783" fill="white" transform="translate(0 0.444824)"/>
</clipPath>
</defs>
</svg>
