<svg width="30" height="30" viewBox="0 0 30 30" fill="none" xmlns="http://www.w3.org/2000/svg">
<path fill-rule="evenodd" clip-rule="evenodd" d="M14.359 4.42302C8.87048 4.42302 4.42308 8.86688 4.42308 14.3463C4.42308 19.8258 8.87048 24.2697 14.359 24.2697C17.0972 24.2697 19.5749 23.1647 21.3729 21.3749C23.1791 19.5771 24.2949 17.0926 24.2949 14.3463C24.2949 8.86688 19.8475 4.42302 14.359 4.42302ZM2.5 14.3463C2.5 7.80271 7.81049 2.49994 14.359 2.49994C20.9075 2.49994 26.2179 7.80271 26.2179 14.3463C26.2179 17.278 25.1509 19.9621 23.3854 22.03L27.218 25.8581C27.5937 26.2334 27.5941 26.8422 27.2188 27.2179C26.8435 27.5936 26.2347 27.594 25.8589 27.2187L22.0228 23.387C19.9563 25.1365 17.2803 26.1927 14.359 26.1927C7.81049 26.1927 2.5 20.89 2.5 14.3463Z" fill="#0396A6"/>
</svg>
