<svg width="48" height="48" viewBox="0 0 48 48" fill="none" xmlns="http://www.w3.org/2000/svg">
<circle cx="24" cy="24" r="24" fill="#0396A6"/>
<path d="M24.0001 22.3494C28.2296 22.3494 31.6582 18.9382 31.6582 14.7303C31.6582 10.5225 28.2296 7.11133 24.0001 7.11133C19.7706 7.11133 16.342 10.5225 16.342 14.7303C16.342 18.9382 19.7706 22.3494 24.0001 22.3494Z" fill="#F8FCFD"/>
<path d="M27.9887 25.5241H20.0115C15.3847 25.5241 11.5557 29.3336 11.5557 33.9368C11.5557 35.0479 12.0343 36.0003 12.9916 36.4765C14.4275 37.2701 17.6183 38.2225 24.0001 38.2225C30.3819 38.2225 33.5728 37.2701 35.0087 36.4765C35.8064 36.0003 36.4445 35.0479 36.4445 33.9368C36.4445 29.1749 32.6155 25.5241 27.9887 25.5241Z" fill="#F8FCFD"/>
</svg>
