<svg width="32" height="32" viewBox="0 0 32 32" fill="none" xmlns="http://www.w3.org/2000/svg">
<path fill-rule="evenodd" clip-rule="evenodd" d="M15.9999 4.71791C13.5295 4.71791 11.5268 6.70775 11.5268 9.16235C11.5268 11.617 13.5295 13.6068 15.9999 13.6068C18.4704 13.6068 20.473 11.617 20.473 9.16235C20.473 6.70775 18.4704 4.71791 15.9999 4.71791ZM9.46228 9.16235C9.46228 5.57486 12.3893 2.66663 15.9999 2.66663C19.6106 2.66663 22.5375 5.57486 22.5375 9.16235C22.5375 12.7498 19.6106 15.6581 15.9999 15.6581C12.3893 15.6581 9.46228 12.7498 9.46228 9.16235Z" fill="#F8FCFD"/>
<path fill-rule="evenodd" clip-rule="evenodd" d="M12.6215 20.4444C9.73651 20.4444 7.39777 22.7682 7.39777 25.6346C7.39777 25.7852 7.42545 25.8914 7.45448 25.9533C7.47898 26.0055 7.5 26.0203 7.51753 26.0298C8.31975 26.4635 10.569 27.282 15.9999 27.282C21.4308 27.282 23.6801 26.4635 24.4823 26.0298C24.4998 26.0203 24.5209 26.0055 24.5454 25.9533C24.5744 25.8914 24.6021 25.7852 24.6021 25.6346C24.6021 22.7682 22.2633 20.4444 19.3783 20.4444H12.6215ZM5.33325 25.6346C5.33325 21.6353 8.59631 18.3931 12.6215 18.3931H19.3783C23.4035 18.3931 26.6666 21.6353 26.6666 25.6346C26.6666 26.3688 26.3991 27.3288 25.4691 27.8316C24.2372 28.4977 21.5944 29.3333 15.9999 29.3333C10.4054 29.3333 7.76266 28.4977 6.53074 27.8316C5.60076 27.3288 5.33325 26.3688 5.33325 25.6346Z" fill="#F8FCFD"/>
</svg>
