<svg width="32" height="32" viewBox="0 0 32 32" fill="none" xmlns="http://www.w3.org/2000/svg">
<path d="M9.19695 21.7144L6.47586 21.7144C4.43505 21.7144 2.66634 23.3471 2.66634 25.524C2.66634 27.7008 4.43505 29.3335 6.47586 29.3335L9.19695 29.3335C11.2378 29.3335 13.0065 27.7008 13.0065 25.524C13.0065 23.3471 11.2378 21.7144 9.19695 21.7144Z" fill="#80898A"/>
<path d="M17.3602 12.1906L6.47586 12.1906C4.43505 12.1906 2.66634 13.8233 2.66634 16.0002C2.66634 18.177 4.43505 19.8097 6.47586 19.8097L17.3602 19.8097C19.401 19.8097 21.1697 18.177 21.1697 16.0002C21.1697 13.8233 19.401 12.1906 17.3602 12.1906Z" fill="#80898A"/>
<path d="M25.5235 2.66683L6.47586 2.66683C4.43505 2.66683 2.66634 4.29948 2.66634 6.47635C2.66634 8.65322 4.29899 10.2859 6.47586 10.2859L25.5235 10.2859C27.5643 10.2859 29.333 8.65322 29.333 6.47635C29.333 4.29948 27.5643 2.66683 25.5235 2.66683Z" fill="#80898A"/>
</svg>
