<svg width="22" height="27" viewBox="0 0 22 27" fill="none" xmlns="http://www.w3.org/2000/svg">
<path fill-rule="evenodd" clip-rule="evenodd" d="M11 26.361C11 26.361 22 19.2678 22 10.9923C22 8.1705 20.8411 5.46422 18.7782 3.46887C16.7153 1.47352 13.9174 0.352539 11 0.352539C8.08262 0.352539 5.28473 1.47352 3.22183 3.46887C1.15893 5.46422 0 8.1705 0 10.9923C0 19.2678 11 26.361 11 26.361ZM14.6667 10.9903C14.6667 12.949 13.025 14.5369 11 14.5369C8.97496 14.5369 7.33334 12.949 7.33334 10.9903C7.33334 9.03158 8.97496 7.44373 11 7.44373C13.025 7.44373 14.6667 9.03158 14.6667 10.9903Z" fill="#0396A6"/>
</svg>
