<svg width="22" height="18" viewBox="0 0 22 18" fill="none" xmlns="http://www.w3.org/2000/svg">
<path fill-rule="evenodd" clip-rule="evenodd" d="M0.830768 8.89459C1.28959 8.89459 1.66154 9.26793 1.66154 9.72846V13.7812C1.66154 14.4975 2.1984 15.0844 2.89527 15.1434C5.00442 15.322 8.33716 15.5655 10.8 15.5655C13.2628 15.5655 16.5956 15.322 18.7047 15.1434C19.4016 15.0844 19.9384 14.4975 19.9384 13.7812V9.72846C19.9384 9.26793 20.3104 8.89459 20.7692 8.89459C21.228 8.89459 21.6 9.26793 21.6 9.72846V13.7812C21.6 15.3499 20.4159 16.6721 18.8444 16.8052C16.7335 16.984 13.3393 17.2333 10.8 17.2333C8.26064 17.2333 4.8665 16.984 2.75558 16.8052C1.18409 16.6721 0 15.3499 0 13.7812V9.72846C0 9.26793 0.371948 8.89459 0.830768 8.89459Z" fill="#262C2D"/>
<path fill-rule="evenodd" clip-rule="evenodd" d="M10.2125 0.244234C10.537 -0.0814115 11.063 -0.0814115 11.3874 0.244234L14.7105 3.57971C15.0349 3.90535 15.0349 4.43333 14.7105 4.75898C14.3861 5.08462 13.8601 5.08462 13.5356 4.75898L11.6308 2.847V9.72846C11.6308 10.189 11.2588 10.5623 10.8 10.5623C10.3412 10.5623 9.96922 10.189 9.96922 9.72846V2.847L8.06436 4.75898C7.73992 5.08462 7.21391 5.08462 6.88947 4.75898C6.56504 4.43333 6.56504 3.90535 6.88947 3.57971L10.2125 0.244234Z" fill="#262C2D"/>
</svg>
